<?xml version="1.0" encoding="utf-8" standalone="no"?>
<!DOCTYPE svg PUBLIC "-//W3C//DTD SVG 1.1//EN"
  "http://www.w3.org/Graphics/SVG/1.1/DTD/svg11.dtd">
<!-- Created with matplotlib (http://matplotlib.org/) -->
<svg height="576pt" version="1.1" viewBox="0 0 576 576" width="576pt" xmlns="http://www.w3.org/2000/svg" xmlns:xlink="http://www.w3.org/1999/xlink">
 <defs>
  <style type="text/css">
*{stroke-linecap:butt;stroke-linejoin:round;}
  </style>
 </defs>
 <g id="figure_1">
  <g id="patch_1">
   <path d="M 0 576 
L 576 576 
L 576 0 
L 0 0 
z
" style="fill:#ffffff;"/>
  </g>
  <g id="axes_1">
   <g id="patch_2">
    <path d="M 516.96 290.88 
C 516.96 261.758744 511.223747 232.920655 500.079525 206.016122 
C 488.935303 179.111589 472.599838 154.663838 452.008 134.072 
C 431.416162 113.480162 406.968411 97.144697 380.063878 86.000475 
C 353.159345 74.856253 324.321256 69.12 295.2 69.12 
C 266.078744 69.12 237.240655 74.856253 210.336122 86.000475 
C 183.431589 97.144697 158.983838 113.480162 138.392 134.072 
C 117.800162 154.663838 101.464697 179.111589 90.320475 206.016122 
C 79.176253 232.920655 73.44 261.758744 73.44 290.88 
C 73.44 320.001256 79.176253 348.839345 90.320475 375.743878 
C 101.464697 402.648411 117.800162 427.096162 138.392 447.688 
C 158.983838 468.279838 183.431589 484.615303 210.336122 495.759525 
C 237.240655 506.903747 266.078744 512.64 295.2 512.64 
C 324.321256 512.64 353.159345 506.903747 380.063878 495.759525 
C 406.968411 484.615303 431.416162 468.279838 452.008 447.688 
C 472.599838 427.096162 488.935303 402.648411 500.079525 375.743878 
C 511.223747 348.839345 516.96 320.001256 516.96 290.88 
M 295.2 290.88 
C 295.2 290.88 295.2 290.88 295.2 290.88 
C 295.2 290.88 295.2 290.88 295.2 290.88 
C 295.2 290.88 295.2 290.88 295.2 290.88 
C 295.2 290.88 295.2 290.88 295.2 290.88 
C 295.2 290.88 295.2 290.88 295.2 290.88 
C 295.2 290.88 295.2 290.88 295.2 290.88 
C 295.2 290.88 295.2 290.88 295.2 290.88 
C 295.2 290.88 295.2 290.88 295.2 290.88 
C 295.2 290.88 295.2 290.88 295.2 290.88 
C 295.2 290.88 295.2 290.88 295.2 290.88 
C 295.2 290.88 295.2 290.88 295.2 290.88 
C 295.2 290.88 295.2 290.88 295.2 290.88 
C 295.2 290.88 295.2 290.88 295.2 290.88 
C 295.2 290.88 295.2 290.88 295.2 290.88 
C 295.2 290.88 295.2 290.88 295.2 290.88 
C 295.2 290.88 295.2 290.88 295.2 290.88 
M 516.96 290.88 
z
" style="fill:#ffffff;"/>
   </g>
   <g id="patch_3">
    <path clip-path="url(#pb98ba3255d)" d="M 295.2 144.926643 
L 331.88033 159.966189 
L 382.772171 146.873701 
L 425.4089 169.273376 
L 346.010801 264.551965 
L 451.37083 258.427328 
L 395.488992 297.739955 
L 353.813178 311.711128 
L 333.13518 317.657574 
L 312.307164 311.907529 
L 312.566062 330.860685 
L 298.207584 312.7618 
L 292.38039 311.394188 
L 272.250799 343.714361 
L 275.690441 314.860469 
L 280.572741 301.205047 
L 262.95684 302.339222 
L 272.245799 292.45011 
L 257.887746 283.126424 
L 238.074991 261.280206 
L 279.516232 276.232384 
L 289.679193 281.80142 
L 291.904413 279.117898 
z
" style="fill:#0000ff;opacity:0.1;"/>
   </g>
   <g id="patch_4">
    <path clip-path="url(#pb98ba3255d)" d="M 295.2 107.193619 
L 347.432551 104.459585 
L 394.107998 128.232726 
L 452.600034 143.878631 
L 337.051759 269.194166 
L 420.83734 264.77226 
L 362.84715 295.507192 
L 327.312996 302.292961 
L 316.346901 305.807113 
L 310.002066 309.074184 
L 310.829985 326.863834 
L 297.877647 310.36133 
L 293.034061 306.638374 
L 267.076352 355.627131 
L 278.455673 311.461542 
L 280.034575 301.584926 
L 253.044062 305.862224 
L 275.936884 292.197633 
L 260.97564 283.768096 
L 269.053437 277.331943 
L 282.840972 279.337474 
L 286.564908 276.680195 
L 290.821066 275.251381 
z
" style="fill:#ff0000;opacity:0.1;"/>
   </g>
   <g id="matplotlib.axis_1">
    <g id="xtick_1">
     <g id="line2d_1">
      <path clip-path="url(#pb98ba3255d)" d="M 295.2 290.88 
L 295.2 69.12 
" style="fill:none;stroke:#b0b0b0;stroke-linecap:square;stroke-width:0.8;"/>
     </g>
     <g id="text_1">
      <!-- C -->
      <defs>
       <path d="M 64.40625 67.28125 
L 64.40625 56.890625 
Q 59.421875 61.53125 53.78125 63.8125 
Q 48.140625 66.109375 41.796875 66.109375 
Q 29.296875 66.109375 22.65625 58.46875 
Q 16.015625 50.828125 16.015625 36.375 
Q 16.015625 21.96875 22.65625 14.328125 
Q 29.296875 6.6875 41.796875 6.6875 
Q 48.140625 6.6875 53.78125 8.984375 
Q 59.421875 11.28125 64.40625 15.921875 
L 64.40625 5.609375 
Q 59.234375 2.09375 53.4375 0.328125 
Q 47.65625 -1.421875 41.21875 -1.421875 
Q 24.65625 -1.421875 15.125 8.703125 
Q 5.609375 18.84375 5.609375 36.375 
Q 5.609375 53.953125 15.125 64.078125 
Q 24.65625 74.21875 41.21875 74.21875 
Q 47.75 74.21875 53.53125 72.484375 
Q 59.328125 70.75 64.40625 67.28125 
z
" id="DejaVuSans-43"/>
      </defs>
      <g transform="translate(291.708594 57.879375)scale(0.1 -0.1)">
       <use xlink:href="#DejaVuSans-43"/>
      </g>
     </g>
    </g>
    <g id="xtick_2">
     <g id="line2d_2">
      <path clip-path="url(#pb98ba3255d)" d="M 295.2 290.88 
L 355.030132 77.343462 
" style="fill:none;stroke:#b0b0b0;stroke-linecap:square;stroke-width:0.8;"/>
     </g>
     <g id="text_2">
      <!-- C++ -->
      <defs>
       <path d="M 46 62.703125 
L 46 35.5 
L 73.1875 35.5 
L 73.1875 27.203125 
L 46 27.203125 
L 46 0 
L 37.796875 0 
L 37.796875 27.203125 
L 10.59375 27.203125 
L 10.59375 35.5 
L 37.796875 35.5 
L 37.796875 62.703125 
z
" id="DejaVuSans-2b"/>
      </defs>
      <g transform="translate(346.936193 66.621995)scale(0.1 -0.1)">
       <use xlink:href="#DejaVuSans-43"/>
       <use x="69.824219" xlink:href="#DejaVuSans-2b"/>
       <use x="153.613281" xlink:href="#DejaVuSans-2b"/>
      </g>
     </g>
    </g>
    <g id="xtick_3">
     <g id="line2d_3">
      <path clip-path="url(#pb98ba3255d)" d="M 295.2 290.88 
L 410.422937 101.403953 
" style="fill:none;stroke:#b0b0b0;stroke-linecap:square;stroke-width:0.8;"/>
     </g>
     <g id="text_3">
      <!-- Java -->
      <defs>
       <path d="M 9.8125 72.90625 
L 19.671875 72.90625 
L 19.671875 5.078125 
Q 19.671875 -8.109375 14.671875 -14.0625 
Q 9.671875 -20.015625 -1.421875 -20.015625 
L -5.171875 -20.015625 
L -5.171875 -11.71875 
L -2.09375 -11.71875 
Q 4.4375 -11.71875 7.125 -8.046875 
Q 9.8125 -4.390625 9.8125 5.078125 
z
" id="DejaVuSans-4a"/>
       <path d="M 34.28125 27.484375 
Q 23.390625 27.484375 19.1875 25 
Q 14.984375 22.515625 14.984375 16.5 
Q 14.984375 11.71875 18.140625 8.90625 
Q 21.296875 6.109375 26.703125 6.109375 
Q 34.1875 6.109375 38.703125 11.40625 
Q 43.21875 16.703125 43.21875 25.484375 
L 43.21875 27.484375 
z
M 52.203125 31.203125 
L 52.203125 0 
L 43.21875 0 
L 43.21875 8.296875 
Q 40.140625 3.328125 35.546875 0.953125 
Q 30.953125 -1.421875 24.3125 -1.421875 
Q 15.921875 -1.421875 10.953125 3.296875 
Q 6 8.015625 6 15.921875 
Q 6 25.140625 12.171875 29.828125 
Q 18.359375 34.515625 30.609375 34.515625 
L 43.21875 34.515625 
L 43.21875 35.40625 
Q 43.21875 41.609375 39.140625 45 
Q 35.0625 48.390625 27.6875 48.390625 
Q 23 48.390625 18.546875 47.265625 
Q 14.109375 46.140625 10.015625 43.890625 
L 10.015625 52.203125 
Q 14.9375 54.109375 19.578125 55.046875 
Q 24.21875 56 28.609375 56 
Q 40.484375 56 46.34375 49.84375 
Q 52.203125 43.703125 52.203125 31.203125 
z
" id="DejaVuSans-61"/>
       <path d="M 2.984375 54.6875 
L 12.5 54.6875 
L 29.59375 8.796875 
L 46.6875 54.6875 
L 56.203125 54.6875 
L 35.6875 0 
L 23.484375 0 
z
" id="DejaVuSans-76"/>
      </defs>
      <g transform="translate(407.134612 92.201456)scale(0.1 -0.1)">
       <use xlink:href="#DejaVuSans-4a"/>
       <use x="29.492188" xlink:href="#DejaVuSans-61"/>
       <use x="90.771484" xlink:href="#DejaVuSans-76"/>
       <use x="149.951172" xlink:href="#DejaVuSans-61"/>
      </g>
     </g>
    </g>
    <g id="xtick_4">
     <g id="line2d_4">
      <path clip-path="url(#pb98ba3255d)" d="M 295.2 290.88 
L 457.270183 139.517015 
" style="fill:none;stroke:#b0b0b0;stroke-linecap:square;stroke-width:0.8;"/>
     </g>
     <g id="text_4">
      <!-- Python -->
      <defs>
       <path d="M 19.671875 64.796875 
L 19.671875 37.40625 
L 32.078125 37.40625 
Q 38.96875 37.40625 42.71875 40.96875 
Q 46.484375 44.53125 46.484375 51.125 
Q 46.484375 57.671875 42.71875 61.234375 
Q 38.96875 64.796875 32.078125 64.796875 
z
M 9.8125 72.90625 
L 32.078125 72.90625 
Q 44.34375 72.90625 50.609375 67.359375 
Q 56.890625 61.8125 56.890625 51.125 
Q 56.890625 40.328125 50.609375 34.8125 
Q 44.34375 29.296875 32.078125 29.296875 
L 19.671875 29.296875 
L 19.671875 0 
L 9.8125 0 
z
" id="DejaVuSans-50"/>
       <path d="M 32.171875 -5.078125 
Q 28.375 -14.84375 24.75 -17.8125 
Q 21.140625 -20.796875 15.09375 -20.796875 
L 7.90625 -20.796875 
L 7.90625 -13.28125 
L 13.1875 -13.28125 
Q 16.890625 -13.28125 18.9375 -11.515625 
Q 21 -9.765625 23.484375 -3.21875 
L 25.09375 0.875 
L 2.984375 54.6875 
L 12.5 54.6875 
L 29.59375 11.921875 
L 46.6875 54.6875 
L 56.203125 54.6875 
z
" id="DejaVuSans-79"/>
       <path d="M 18.3125 70.21875 
L 18.3125 54.6875 
L 36.8125 54.6875 
L 36.8125 47.703125 
L 18.3125 47.703125 
L 18.3125 18.015625 
Q 18.3125 11.328125 20.140625 9.421875 
Q 21.96875 7.515625 27.59375 7.515625 
L 36.8125 7.515625 
L 36.8125 0 
L 27.59375 0 
Q 17.1875 0 13.234375 3.875 
Q 9.28125 7.765625 9.28125 18.015625 
L 9.28125 47.703125 
L 2.6875 47.703125 
L 2.6875 54.6875 
L 9.28125 54.6875 
L 9.28125 70.21875 
z
" id="DejaVuSans-74"/>
       <path d="M 54.890625 33.015625 
L 54.890625 0 
L 45.90625 0 
L 45.90625 32.71875 
Q 45.90625 40.484375 42.875 44.328125 
Q 39.84375 48.1875 33.796875 48.1875 
Q 26.515625 48.1875 22.3125 43.546875 
Q 18.109375 38.921875 18.109375 30.90625 
L 18.109375 0 
L 9.078125 0 
L 9.078125 75.984375 
L 18.109375 75.984375 
L 18.109375 46.1875 
Q 21.34375 51.125 25.703125 53.5625 
Q 30.078125 56 35.796875 56 
Q 45.21875 56 50.046875 50.171875 
Q 54.890625 44.34375 54.890625 33.015625 
z
" id="DejaVuSans-68"/>
       <path d="M 30.609375 48.390625 
Q 23.390625 48.390625 19.1875 42.75 
Q 14.984375 37.109375 14.984375 27.296875 
Q 14.984375 17.484375 19.15625 11.84375 
Q 23.34375 6.203125 30.609375 6.203125 
Q 37.796875 6.203125 41.984375 11.859375 
Q 46.1875 17.53125 46.1875 27.296875 
Q 46.1875 37.015625 41.984375 42.703125 
Q 37.796875 48.390625 30.609375 48.390625 
z
M 30.609375 56 
Q 42.328125 56 49.015625 48.375 
Q 55.71875 40.765625 55.71875 27.296875 
Q 55.71875 13.875 49.015625 6.21875 
Q 42.328125 -1.421875 30.609375 -1.421875 
Q 18.84375 -1.421875 12.171875 6.21875 
Q 5.515625 13.875 5.515625 27.296875 
Q 5.515625 40.765625 12.171875 48.375 
Q 18.84375 56 30.609375 56 
z
" id="DejaVuSans-6f"/>
       <path d="M 54.890625 33.015625 
L 54.890625 0 
L 45.90625 0 
L 45.90625 32.71875 
Q 45.90625 40.484375 42.875 44.328125 
Q 39.84375 48.1875 33.796875 48.1875 
Q 26.515625 48.1875 22.3125 43.546875 
Q 18.109375 38.921875 18.109375 30.90625 
L 18.109375 0 
L 9.078125 0 
L 9.078125 54.6875 
L 18.109375 54.6875 
L 18.109375 46.1875 
Q 21.34375 51.125 25.703125 53.5625 
Q 30.078125 56 35.796875 56 
Q 45.21875 56 50.046875 50.171875 
Q 54.890625 44.34375 54.890625 33.015625 
z
" id="DejaVuSans-6e"/>
      </defs>
      <g transform="translate(450.170637 132.720646)scale(0.1 -0.1)">
       <use xlink:href="#DejaVuSans-50"/>
       <use x="60.302734" xlink:href="#DejaVuSans-79"/>
       <use x="119.482422" xlink:href="#DejaVuSans-74"/>
       <use x="158.691406" xlink:href="#DejaVuSans-68"/>
       <use x="222.070312" xlink:href="#DejaVuSans-6f"/>
       <use x="283.251953" xlink:href="#DejaVuSans-6e"/>
      </g>
     </g>
    </g>
    <g id="xtick_5">
     <g id="line2d_5">
      <path clip-path="url(#pb98ba3255d)" d="M 295.2 290.88 
L 492.097426 188.855977 
" style="fill:none;stroke:#b0b0b0;stroke-linecap:square;stroke-width:0.8;"/>
     </g>
     <g id="text_5">
      <!-- Ruby -->
      <defs>
       <path d="M 44.390625 34.1875 
Q 47.5625 33.109375 50.5625 29.59375 
Q 53.5625 26.078125 56.59375 19.921875 
L 66.609375 0 
L 56 0 
L 46.6875 18.703125 
Q 43.0625 26.03125 39.671875 28.421875 
Q 36.28125 30.8125 30.421875 30.8125 
L 19.671875 30.8125 
L 19.671875 0 
L 9.8125 0 
L 9.8125 72.90625 
L 32.078125 72.90625 
Q 44.578125 72.90625 50.734375 67.671875 
Q 56.890625 62.453125 56.890625 51.90625 
Q 56.890625 45.015625 53.6875 40.46875 
Q 50.484375 35.9375 44.390625 34.1875 
z
M 19.671875 64.796875 
L 19.671875 38.921875 
L 32.078125 38.921875 
Q 39.203125 38.921875 42.84375 42.21875 
Q 46.484375 45.515625 46.484375 51.90625 
Q 46.484375 58.296875 42.84375 61.546875 
Q 39.203125 64.796875 32.078125 64.796875 
z
" id="DejaVuSans-52"/>
       <path d="M 8.5 21.578125 
L 8.5 54.6875 
L 17.484375 54.6875 
L 17.484375 21.921875 
Q 17.484375 14.15625 20.5 10.265625 
Q 23.53125 6.390625 29.59375 6.390625 
Q 36.859375 6.390625 41.078125 11.03125 
Q 45.3125 15.671875 45.3125 23.6875 
L 45.3125 54.6875 
L 54.296875 54.6875 
L 54.296875 0 
L 45.3125 0 
L 45.3125 8.40625 
Q 42.046875 3.421875 37.71875 1 
Q 33.40625 -1.421875 27.6875 -1.421875 
Q 18.265625 -1.421875 13.375 4.4375 
Q 8.5 10.296875 8.5 21.578125 
z
M 31.109375 56 
z
" id="DejaVuSans-75"/>
       <path d="M 48.6875 27.296875 
Q 48.6875 37.203125 44.609375 42.84375 
Q 40.53125 48.484375 33.40625 48.484375 
Q 26.265625 48.484375 22.1875 42.84375 
Q 18.109375 37.203125 18.109375 27.296875 
Q 18.109375 17.390625 22.1875 11.75 
Q 26.265625 6.109375 33.40625 6.109375 
Q 40.53125 6.109375 44.609375 11.75 
Q 48.6875 17.390625 48.6875 27.296875 
z
M 18.109375 46.390625 
Q 20.953125 51.265625 25.265625 53.625 
Q 29.59375 56 35.59375 56 
Q 45.5625 56 51.78125 48.09375 
Q 58.015625 40.1875 58.015625 27.296875 
Q 58.015625 14.40625 51.78125 6.484375 
Q 45.5625 -1.421875 35.59375 -1.421875 
Q 29.59375 -1.421875 25.265625 0.953125 
Q 20.953125 3.328125 18.109375 8.203125 
L 18.109375 0 
L 9.078125 0 
L 9.078125 75.984375 
L 18.109375 75.984375 
z
" id="DejaVuSans-62"/>
      </defs>
      <g transform="translate(491.754382 185.174442)scale(0.1 -0.1)">
       <use xlink:href="#DejaVuSans-52"/>
       <use x="69.419922" xlink:href="#DejaVuSans-75"/>
       <use x="132.798828" xlink:href="#DejaVuSans-62"/>
       <use x="196.275391" xlink:href="#DejaVuSans-79"/>
      </g>
     </g>
    </g>
    <g id="xtick_6">
     <g id="line2d_6">
      <path clip-path="url(#pb98ba3255d)" d="M 295.2 290.88 
L 512.321687 245.761595 
" style="fill:none;stroke:#b0b0b0;stroke-linecap:square;stroke-width:0.8;"/>
     </g>
     <g id="text_6">
      <!-- Javascript -->
      <defs>
       <path d="M 44.28125 53.078125 
L 44.28125 44.578125 
Q 40.484375 46.53125 36.375 47.5 
Q 32.28125 48.484375 27.875 48.484375 
Q 21.1875 48.484375 17.84375 46.4375 
Q 14.5 44.390625 14.5 40.28125 
Q 14.5 37.15625 16.890625 35.375 
Q 19.28125 33.59375 26.515625 31.984375 
L 29.59375 31.296875 
Q 39.15625 29.25 43.1875 25.515625 
Q 47.21875 21.78125 47.21875 15.09375 
Q 47.21875 7.46875 41.1875 3.015625 
Q 35.15625 -1.421875 24.609375 -1.421875 
Q 20.21875 -1.421875 15.453125 -0.5625 
Q 10.6875 0.296875 5.421875 2 
L 5.421875 11.28125 
Q 10.40625 8.6875 15.234375 7.390625 
Q 20.0625 6.109375 24.8125 6.109375 
Q 31.15625 6.109375 34.5625 8.28125 
Q 37.984375 10.453125 37.984375 14.40625 
Q 37.984375 18.0625 35.515625 20.015625 
Q 33.0625 21.96875 24.703125 23.78125 
L 21.578125 24.515625 
Q 13.234375 26.265625 9.515625 29.90625 
Q 5.8125 33.546875 5.8125 39.890625 
Q 5.8125 47.609375 11.28125 51.796875 
Q 16.75 56 26.8125 56 
Q 31.78125 56 36.171875 55.265625 
Q 40.578125 54.546875 44.28125 53.078125 
z
" id="DejaVuSans-73"/>
       <path d="M 48.78125 52.59375 
L 48.78125 44.1875 
Q 44.96875 46.296875 41.140625 47.34375 
Q 37.3125 48.390625 33.40625 48.390625 
Q 24.65625 48.390625 19.8125 42.84375 
Q 14.984375 37.3125 14.984375 27.296875 
Q 14.984375 17.28125 19.8125 11.734375 
Q 24.65625 6.203125 33.40625 6.203125 
Q 37.3125 6.203125 41.140625 7.25 
Q 44.96875 8.296875 48.78125 10.40625 
L 48.78125 2.09375 
Q 45.015625 0.34375 40.984375 -0.53125 
Q 36.96875 -1.421875 32.421875 -1.421875 
Q 20.0625 -1.421875 12.78125 6.34375 
Q 5.515625 14.109375 5.515625 27.296875 
Q 5.515625 40.671875 12.859375 48.328125 
Q 20.21875 56 33.015625 56 
Q 37.15625 56 41.109375 55.140625 
Q 45.0625 54.296875 48.78125 52.59375 
z
" id="DejaVuSans-63"/>
       <path d="M 41.109375 46.296875 
Q 39.59375 47.171875 37.8125 47.578125 
Q 36.03125 48 33.890625 48 
Q 26.265625 48 22.1875 43.046875 
Q 18.109375 38.09375 18.109375 28.8125 
L 18.109375 0 
L 9.078125 0 
L 9.078125 54.6875 
L 18.109375 54.6875 
L 18.109375 46.1875 
Q 20.953125 51.171875 25.484375 53.578125 
Q 30.03125 56 36.53125 56 
Q 37.453125 56 38.578125 55.875 
Q 39.703125 55.765625 41.0625 55.515625 
z
" id="DejaVuSans-72"/>
       <path d="M 9.421875 54.6875 
L 18.40625 54.6875 
L 18.40625 0 
L 9.421875 0 
z
M 9.421875 75.984375 
L 18.40625 75.984375 
L 18.40625 64.59375 
L 9.421875 64.59375 
z
" id="DejaVuSans-69"/>
       <path d="M 18.109375 8.203125 
L 18.109375 -20.796875 
L 9.078125 -20.796875 
L 9.078125 54.6875 
L 18.109375 54.6875 
L 18.109375 46.390625 
Q 20.953125 51.265625 25.265625 53.625 
Q 29.59375 56 35.59375 56 
Q 45.5625 56 51.78125 48.09375 
Q 58.015625 40.1875 58.015625 27.296875 
Q 58.015625 14.40625 51.78125 6.484375 
Q 45.5625 -1.421875 35.59375 -1.421875 
Q 29.59375 -1.421875 25.265625 0.953125 
Q 20.953125 3.328125 18.109375 8.203125 
z
M 48.6875 27.296875 
Q 48.6875 37.203125 44.609375 42.84375 
Q 40.53125 48.484375 33.40625 48.484375 
Q 26.265625 48.484375 22.1875 42.84375 
Q 18.109375 37.203125 18.109375 27.296875 
Q 18.109375 17.390625 22.1875 11.75 
Q 26.265625 6.109375 33.40625 6.109375 
Q 40.53125 6.109375 44.609375 11.75 
Q 48.6875 17.390625 48.6875 27.296875 
z
" id="DejaVuSans-70"/>
      </defs>
      <g transform="translate(501.533552 245.672585)scale(0.1 -0.1)">
       <use xlink:href="#DejaVuSans-4a"/>
       <use x="29.492188" xlink:href="#DejaVuSans-61"/>
       <use x="90.771484" xlink:href="#DejaVuSans-76"/>
       <use x="149.951172" xlink:href="#DejaVuSans-61"/>
       <use x="211.230469" xlink:href="#DejaVuSans-73"/>
       <use x="263.330078" xlink:href="#DejaVuSans-63"/>
       <use x="318.310547" xlink:href="#DejaVuSans-72"/>
       <use x="359.423828" xlink:href="#DejaVuSans-69"/>
       <use x="387.207031" xlink:href="#DejaVuSans-70"/>
       <use x="450.683594" xlink:href="#DejaVuSans-74"/>
      </g>
     </g>
    </g>
    <g id="xtick_7">
     <g id="line2d_7">
      <path clip-path="url(#pb98ba3255d)" d="M 295.2 290.88 
L 516.443026 306.013438 
" style="fill:none;stroke:#b0b0b0;stroke-linecap:square;stroke-width:0.8;"/>
     </g>
     <g id="text_7">
      <!-- C# -->
      <defs>
       <path d="M 51.125 44 
L 36.921875 44 
L 32.8125 27.6875 
L 47.125 27.6875 
z
M 43.796875 71.78125 
L 38.71875 51.515625 
L 52.984375 51.515625 
L 58.109375 71.78125 
L 65.921875 71.78125 
L 60.890625 51.515625 
L 76.125 51.515625 
L 76.125 44 
L 58.984375 44 
L 54.984375 27.6875 
L 70.515625 27.6875 
L 70.515625 20.21875 
L 53.078125 20.21875 
L 48 0 
L 40.1875 0 
L 45.21875 20.21875 
L 30.90625 20.21875 
L 25.875 0 
L 18.015625 0 
L 23.09375 20.21875 
L 7.71875 20.21875 
L 7.71875 27.6875 
L 24.90625 27.6875 
L 29 44 
L 13.28125 44 
L 13.28125 51.515625 
L 30.90625 51.515625 
L 35.890625 71.78125 
z
" id="DejaVuSans-23"/>
      </defs>
      <g transform="translate(522.729139 309.728206)scale(0.1 -0.1)">
       <use xlink:href="#DejaVuSans-43"/>
       <use x="69.824219" xlink:href="#DejaVuSans-23"/>
      </g>
     </g>
    </g>
    <g id="xtick_8">
     <g id="line2d_8">
      <path clip-path="url(#pb98ba3255d)" d="M 295.2 290.88 
L 504.155782 365.142903 
" style="fill:none;stroke:#b0b0b0;stroke-linecap:square;stroke-width:0.8;"/>
     </g>
     <g id="text_8">
      <!-- Go -->
      <defs>
       <path d="M 59.515625 10.40625 
L 59.515625 29.984375 
L 43.40625 29.984375 
L 43.40625 38.09375 
L 69.28125 38.09375 
L 69.28125 6.78125 
Q 63.578125 2.734375 56.6875 0.65625 
Q 49.8125 -1.421875 42 -1.421875 
Q 24.90625 -1.421875 15.25 8.5625 
Q 5.609375 18.5625 5.609375 36.375 
Q 5.609375 54.25 15.25 64.234375 
Q 24.90625 74.21875 42 74.21875 
Q 49.125 74.21875 55.546875 72.453125 
Q 61.96875 70.703125 67.390625 67.28125 
L 67.390625 56.78125 
Q 61.921875 61.421875 55.765625 63.765625 
Q 49.609375 66.109375 42.828125 66.109375 
Q 29.4375 66.109375 22.71875 58.640625 
Q 16.015625 51.171875 16.015625 36.375 
Q 16.015625 21.625 22.71875 14.15625 
Q 29.4375 6.6875 42.828125 6.6875 
Q 48.046875 6.6875 52.140625 7.59375 
Q 56.25 8.5 59.515625 10.40625 
z
" id="DejaVuSans-47"/>
      </defs>
      <g transform="translate(510.413841 372.590592)scale(0.1 -0.1)">
       <use xlink:href="#DejaVuSans-47"/>
       <use x="77.490234" xlink:href="#DejaVuSans-6f"/>
      </g>
     </g>
    </g>
    <g id="xtick_9">
     <g id="line2d_9">
      <path clip-path="url(#pb98ba3255d)" d="M 295.2 290.88 
L 476.371243 418.764628 
" style="fill:none;stroke:#b0b0b0;stroke-linecap:square;stroke-width:0.8;"/>
     </g>
     <g id="text_9">
      <!-- Scala -->
      <defs>
       <path d="M 53.515625 70.515625 
L 53.515625 60.890625 
Q 47.90625 63.578125 42.921875 64.890625 
Q 37.9375 66.21875 33.296875 66.21875 
Q 25.25 66.21875 20.875 63.09375 
Q 16.5 59.96875 16.5 54.203125 
Q 16.5 49.359375 19.40625 46.890625 
Q 22.3125 44.4375 30.421875 42.921875 
L 36.375 41.703125 
Q 47.40625 39.59375 52.65625 34.296875 
Q 57.90625 29 57.90625 20.125 
Q 57.90625 9.515625 50.796875 4.046875 
Q 43.703125 -1.421875 29.984375 -1.421875 
Q 24.8125 -1.421875 18.96875 -0.25 
Q 13.140625 0.921875 6.890625 3.21875 
L 6.890625 13.375 
Q 12.890625 10.015625 18.65625 8.296875 
Q 24.421875 6.59375 29.984375 6.59375 
Q 38.421875 6.59375 43.015625 9.90625 
Q 47.609375 13.234375 47.609375 19.390625 
Q 47.609375 24.75 44.3125 27.78125 
Q 41.015625 30.8125 33.5 32.328125 
L 27.484375 33.5 
Q 16.453125 35.6875 11.515625 40.375 
Q 6.59375 45.0625 6.59375 53.421875 
Q 6.59375 63.09375 13.40625 68.65625 
Q 20.21875 74.21875 32.171875 74.21875 
Q 37.3125 74.21875 42.625 73.28125 
Q 47.953125 72.359375 53.515625 70.515625 
z
" id="DejaVuSans-53"/>
       <path d="M 9.421875 75.984375 
L 18.40625 75.984375 
L 18.40625 0 
L 9.421875 0 
z
" id="DejaVuSans-6c"/>
      </defs>
      <g transform="translate(474.368197 429.597528)scale(0.1 -0.1)">
       <use xlink:href="#DejaVuSans-53"/>
       <use x="63.476562" xlink:href="#DejaVuSans-63"/>
       <use x="118.457031" xlink:href="#DejaVuSans-61"/>
       <use x="179.736328" xlink:href="#DejaVuSans-6c"/>
       <use x="207.519531" xlink:href="#DejaVuSans-61"/>
      </g>
     </g>
    </g>
    <g id="xtick_10">
     <g id="line2d_10">
      <path clip-path="url(#pb98ba3255d)" d="M 295.2 290.88 
L 435.150063 462.901736 
" style="fill:none;stroke:#b0b0b0;stroke-linecap:square;stroke-width:0.8;"/>
     </g>
     <g id="text_10">
      <!-- Perl -->
      <defs>
       <path d="M 56.203125 29.59375 
L 56.203125 25.203125 
L 14.890625 25.203125 
Q 15.484375 15.921875 20.484375 11.0625 
Q 25.484375 6.203125 34.421875 6.203125 
Q 39.59375 6.203125 44.453125 7.46875 
Q 49.3125 8.734375 54.109375 11.28125 
L 54.109375 2.78125 
Q 49.265625 0.734375 44.1875 -0.34375 
Q 39.109375 -1.421875 33.890625 -1.421875 
Q 20.796875 -1.421875 13.15625 6.1875 
Q 5.515625 13.8125 5.515625 26.8125 
Q 5.515625 40.234375 12.765625 48.109375 
Q 20.015625 56 32.328125 56 
Q 43.359375 56 49.78125 48.890625 
Q 56.203125 41.796875 56.203125 29.59375 
z
M 47.21875 32.234375 
Q 47.125 39.59375 43.09375 43.984375 
Q 39.0625 48.390625 32.421875 48.390625 
Q 24.90625 48.390625 20.390625 44.140625 
Q 15.875 39.890625 15.1875 32.171875 
z
" id="DejaVuSans-65"/>
      </defs>
      <g transform="translate(434.4517 476.521069)scale(0.1 -0.1)">
       <use xlink:href="#DejaVuSans-50"/>
       <use x="60.255859" xlink:href="#DejaVuSans-65"/>
       <use x="121.779297" xlink:href="#DejaVuSans-72"/>
       <use x="162.892578" xlink:href="#DejaVuSans-6c"/>
      </g>
     </g>
    </g>
    <g id="xtick_11">
     <g id="line2d_11">
      <path clip-path="url(#pb98ba3255d)" d="M 295.2 290.88 
L 383.549426 494.280778 
" style="fill:none;stroke:#b0b0b0;stroke-linecap:square;stroke-width:0.8;"/>
     </g>
     <g id="text_11">
      <!-- Swift -->
      <defs>
       <path d="M 4.203125 54.6875 
L 13.1875 54.6875 
L 24.421875 12.015625 
L 35.59375 54.6875 
L 46.1875 54.6875 
L 57.421875 12.015625 
L 68.609375 54.6875 
L 77.59375 54.6875 
L 63.28125 0 
L 52.6875 0 
L 40.921875 44.828125 
L 29.109375 0 
L 18.5 0 
z
" id="DejaVuSans-77"/>
       <path d="M 37.109375 75.984375 
L 37.109375 68.5 
L 28.515625 68.5 
Q 23.6875 68.5 21.796875 66.546875 
Q 19.921875 64.59375 19.921875 59.515625 
L 19.921875 54.6875 
L 34.71875 54.6875 
L 34.71875 47.703125 
L 19.921875 47.703125 
L 19.921875 0 
L 10.890625 0 
L 10.890625 47.703125 
L 2.296875 47.703125 
L 2.296875 54.6875 
L 10.890625 54.6875 
L 10.890625 58.5 
Q 10.890625 67.625 15.140625 71.796875 
Q 19.390625 75.984375 28.609375 75.984375 
z
" id="DejaVuSans-66"/>
      </defs>
      <g transform="translate(376.755166 509.881111)scale(0.1 -0.1)">
       <use xlink:href="#DejaVuSans-53"/>
       <use x="63.476562" xlink:href="#DejaVuSans-77"/>
       <use x="145.263672" xlink:href="#DejaVuSans-69"/>
       <use x="173.046875" xlink:href="#DejaVuSans-66"/>
       <use x="208.236328" xlink:href="#DejaVuSans-74"/>
      </g>
     </g>
    </g>
    <g id="xtick_12">
     <g id="line2d_12">
      <path clip-path="url(#pb98ba3255d)" d="M 295.2 290.88 
L 325.396316 510.574515 
" style="fill:none;stroke:#b0b0b0;stroke-linecap:square;stroke-width:0.8;"/>
     </g>
     <g id="text_12">
      <!-- Pascal -->
      <g transform="translate(311.419837 527.203494)scale(0.1 -0.1)">
       <use xlink:href="#DejaVuSans-50"/>
       <use x="60.240234" xlink:href="#DejaVuSans-61"/>
       <use x="121.519531" xlink:href="#DejaVuSans-73"/>
       <use x="173.619141" xlink:href="#DejaVuSans-63"/>
       <use x="228.599609" xlink:href="#DejaVuSans-61"/>
       <use x="289.878906" xlink:href="#DejaVuSans-6c"/>
      </g>
     </g>
    </g>
    <g id="xtick_13">
     <g id="line2d_13">
      <path clip-path="url(#pb98ba3255d)" d="M 295.2 290.88 
L 265.003684 510.574515 
" style="fill:none;stroke:#b0b0b0;stroke-linecap:square;stroke-width:0.8;"/>
     </g>
     <g id="text_13">
      <!-- Clojure -->
      <defs>
       <path d="M 9.421875 54.6875 
L 18.40625 54.6875 
L 18.40625 -0.984375 
Q 18.40625 -11.421875 14.421875 -16.109375 
Q 10.453125 -20.796875 1.609375 -20.796875 
L -1.8125 -20.796875 
L -1.8125 -13.1875 
L 0.59375 -13.1875 
Q 5.71875 -13.1875 7.5625 -10.8125 
Q 9.421875 -8.453125 9.421875 -0.984375 
z
M 9.421875 75.984375 
L 18.40625 75.984375 
L 18.40625 64.59375 
L 9.421875 64.59375 
z
" id="DejaVuSans-6a"/>
      </defs>
      <g transform="translate(245.469226 527.203494)scale(0.1 -0.1)">
       <use xlink:href="#DejaVuSans-43"/>
       <use x="69.824219" xlink:href="#DejaVuSans-6c"/>
       <use x="97.607422" xlink:href="#DejaVuSans-6f"/>
       <use x="158.789062" xlink:href="#DejaVuSans-6a"/>
       <use x="186.572266" xlink:href="#DejaVuSans-75"/>
       <use x="249.951172" xlink:href="#DejaVuSans-72"/>
       <use x="291.033203" xlink:href="#DejaVuSans-65"/>
      </g>
     </g>
    </g>
    <g id="xtick_14">
     <g id="line2d_14">
      <path clip-path="url(#pb98ba3255d)" d="M 295.2 290.88 
L 206.850574 494.280778 
" style="fill:none;stroke:#b0b0b0;stroke-linecap:square;stroke-width:0.8;"/>
     </g>
     <g id="text_14">
      <!-- PHP -->
      <defs>
       <path d="M 9.8125 72.90625 
L 19.671875 72.90625 
L 19.671875 43.015625 
L 55.515625 43.015625 
L 55.515625 72.90625 
L 65.375 72.90625 
L 65.375 0 
L 55.515625 0 
L 55.515625 34.71875 
L 19.671875 34.71875 
L 19.671875 0 
L 9.8125 0 
z
" id="DejaVuSans-48"/>
      </defs>
      <g transform="translate(191.483115 509.881111)scale(0.1 -0.1)">
       <use xlink:href="#DejaVuSans-50"/>
       <use x="60.302734" xlink:href="#DejaVuSans-48"/>
       <use x="135.498047" xlink:href="#DejaVuSans-50"/>
      </g>
     </g>
    </g>
    <g id="xtick_15">
     <g id="line2d_15">
      <path clip-path="url(#pb98ba3255d)" d="M 295.2 290.88 
L 155.249937 462.901736 
" style="fill:none;stroke:#b0b0b0;stroke-linecap:square;stroke-width:0.8;"/>
     </g>
     <g id="text_15">
      <!-- Haskell -->
      <defs>
       <path d="M 9.078125 75.984375 
L 18.109375 75.984375 
L 18.109375 31.109375 
L 44.921875 54.6875 
L 56.390625 54.6875 
L 27.390625 29.109375 
L 57.625 0 
L 45.90625 0 
L 18.109375 26.703125 
L 18.109375 0 
L 9.078125 0 
z
" id="DejaVuSans-6b"/>
      </defs>
      <g transform="translate(128.238144 476.521069)scale(0.1 -0.1)">
       <use xlink:href="#DejaVuSans-48"/>
       <use x="75.195312" xlink:href="#DejaVuSans-61"/>
       <use x="136.474609" xlink:href="#DejaVuSans-73"/>
       <use x="188.574219" xlink:href="#DejaVuSans-6b"/>
       <use x="246.4375" xlink:href="#DejaVuSans-65"/>
       <use x="307.960938" xlink:href="#DejaVuSans-6c"/>
       <use x="335.744141" xlink:href="#DejaVuSans-6c"/>
      </g>
     </g>
    </g>
    <g id="xtick_16">
     <g id="line2d_16">
      <path clip-path="url(#pb98ba3255d)" d="M 295.2 290.88 
L 114.028757 418.764628 
" style="fill:none;stroke:#b0b0b0;stroke-linecap:square;stroke-width:0.8;"/>
     </g>
     <g id="text_16">
      <!-- Lua -->
      <defs>
       <path d="M 9.8125 72.90625 
L 19.671875 72.90625 
L 19.671875 8.296875 
L 55.171875 8.296875 
L 55.171875 0 
L 9.8125 0 
z
" id="DejaVuSans-4c"/>
      </defs>
      <g transform="translate(93.573209 429.597528)scale(0.1 -0.1)">
       <use xlink:href="#DejaVuSans-4c"/>
       <use x="55.697266" xlink:href="#DejaVuSans-75"/>
       <use x="119.076172" xlink:href="#DejaVuSans-61"/>
      </g>
     </g>
    </g>
    <g id="xtick_17">
     <g id="line2d_17">
      <path clip-path="url(#pb98ba3255d)" d="M 295.2 290.88 
L 86.244218 365.142903 
" style="fill:none;stroke:#b0b0b0;stroke-linecap:square;stroke-width:0.8;"/>
     </g>
     <g id="text_17">
      <!-- R -->
      <g transform="translate(69.578346 372.590592)scale(0.1 -0.1)">
       <use xlink:href="#DejaVuSans-52"/>
      </g>
     </g>
    </g>
    <g id="xtick_18">
     <g id="line2d_18">
      <path clip-path="url(#pb98ba3255d)" d="M 295.2 290.88 
L 73.956974 306.013438 
" style="fill:none;stroke:#b0b0b0;stroke-linecap:square;stroke-width:0.8;"/>
     </g>
     <g id="text_18">
      <!-- Rust -->
      <g transform="translate(48.784923 309.728206)scale(0.1 -0.1)">
       <use xlink:href="#DejaVuSans-52"/>
       <use x="69.419922" xlink:href="#DejaVuSans-75"/>
       <use x="132.798828" xlink:href="#DejaVuSans-73"/>
       <use x="184.898438" xlink:href="#DejaVuSans-74"/>
      </g>
     </g>
    </g>
    <g id="xtick_19">
     <g id="line2d_19">
      <path clip-path="url(#pb98ba3255d)" d="M 295.2 290.88 
L 78.078313 245.761595 
" style="fill:none;stroke:#b0b0b0;stroke-linecap:square;stroke-width:0.8;"/>
     </g>
     <g id="text_19">
      <!-- Kotlin -->
      <defs>
       <path d="M 9.8125 72.90625 
L 19.671875 72.90625 
L 19.671875 42.09375 
L 52.390625 72.90625 
L 65.09375 72.90625 
L 28.90625 38.921875 
L 67.671875 0 
L 54.6875 0 
L 19.671875 35.109375 
L 19.671875 0 
L 9.8125 0 
z
" id="DejaVuSans-4b"/>
      </defs>
      <g transform="translate(50.129729 245.672585)scale(0.1 -0.1)">
       <use xlink:href="#DejaVuSans-4b"/>
       <use x="65.498047" xlink:href="#DejaVuSans-6f"/>
       <use x="126.679688" xlink:href="#DejaVuSans-74"/>
       <use x="165.888672" xlink:href="#DejaVuSans-6c"/>
       <use x="193.671875" xlink:href="#DejaVuSans-69"/>
       <use x="221.455078" xlink:href="#DejaVuSans-6e"/>
      </g>
     </g>
    </g>
    <g id="xtick_20">
     <g id="line2d_20">
      <path clip-path="url(#pb98ba3255d)" d="M 295.2 290.88 
L 98.302574 188.855977 
" style="fill:none;stroke:#b0b0b0;stroke-linecap:square;stroke-width:0.8;"/>
     </g>
     <g id="text_20">
      <!-- Typescript -->
      <defs>
       <path d="M -0.296875 72.90625 
L 61.375 72.90625 
L 61.375 64.59375 
L 35.5 64.59375 
L 35.5 0 
L 25.59375 0 
L 25.59375 64.59375 
L -0.296875 64.59375 
z
" id="DejaVuSans-54"/>
      </defs>
      <g transform="translate(59.687025 185.174442)scale(0.1 -0.1)">
       <use xlink:href="#DejaVuSans-54"/>
       <use x="60.849609" xlink:href="#DejaVuSans-79"/>
       <use x="120.029297" xlink:href="#DejaVuSans-70"/>
       <use x="183.505859" xlink:href="#DejaVuSans-65"/>
       <use x="245.029297" xlink:href="#DejaVuSans-73"/>
       <use x="297.128906" xlink:href="#DejaVuSans-63"/>
       <use x="352.109375" xlink:href="#DejaVuSans-72"/>
       <use x="393.222656" xlink:href="#DejaVuSans-69"/>
       <use x="421.005859" xlink:href="#DejaVuSans-70"/>
       <use x="484.482422" xlink:href="#DejaVuSans-74"/>
      </g>
     </g>
    </g>
    <g id="xtick_21">
     <g id="line2d_21">
      <path clip-path="url(#pb98ba3255d)" d="M 295.2 290.88 
L 133.129817 139.517015 
" style="fill:none;stroke:#b0b0b0;stroke-linecap:square;stroke-width:0.8;"/>
     </g>
     <g id="text_21">
      <!-- Erlang -->
      <defs>
       <path d="M 9.8125 72.90625 
L 55.90625 72.90625 
L 55.90625 64.59375 
L 19.671875 64.59375 
L 19.671875 43.015625 
L 54.390625 43.015625 
L 54.390625 34.71875 
L 19.671875 34.71875 
L 19.671875 8.296875 
L 56.78125 8.296875 
L 56.78125 0 
L 9.8125 0 
z
" id="DejaVuSans-45"/>
       <path d="M 45.40625 27.984375 
Q 45.40625 37.75 41.375 43.109375 
Q 37.359375 48.484375 30.078125 48.484375 
Q 22.859375 48.484375 18.828125 43.109375 
Q 14.796875 37.75 14.796875 27.984375 
Q 14.796875 18.265625 18.828125 12.890625 
Q 22.859375 7.515625 30.078125 7.515625 
Q 37.359375 7.515625 41.375 12.890625 
Q 45.40625 18.265625 45.40625 27.984375 
z
M 54.390625 6.78125 
Q 54.390625 -7.171875 48.1875 -13.984375 
Q 42 -20.796875 29.203125 -20.796875 
Q 24.46875 -20.796875 20.265625 -20.09375 
Q 16.0625 -19.390625 12.109375 -17.921875 
L 12.109375 -9.1875 
Q 16.0625 -11.328125 19.921875 -12.34375 
Q 23.78125 -13.375 27.78125 -13.375 
Q 36.625 -13.375 41.015625 -8.765625 
Q 45.40625 -4.15625 45.40625 5.171875 
L 45.40625 9.625 
Q 42.625 4.78125 38.28125 2.390625 
Q 33.9375 0 27.875 0 
Q 17.828125 0 11.671875 7.65625 
Q 5.515625 15.328125 5.515625 27.984375 
Q 5.515625 40.671875 11.671875 48.328125 
Q 17.828125 56 27.875 56 
Q 33.9375 56 38.28125 53.609375 
Q 42.625 51.21875 45.40625 46.390625 
L 45.40625 54.6875 
L 54.390625 54.6875 
z
" id="DejaVuSans-67"/>
      </defs>
      <g transform="translate(106.887176 132.720646)scale(0.1 -0.1)">
       <use xlink:href="#DejaVuSans-45"/>
       <use x="63.183594" xlink:href="#DejaVuSans-72"/>
       <use x="104.296875" xlink:href="#DejaVuSans-6c"/>
       <use x="132.080078" xlink:href="#DejaVuSans-61"/>
       <use x="193.359375" xlink:href="#DejaVuSans-6e"/>
       <use x="256.738281" xlink:href="#DejaVuSans-67"/>
      </g>
     </g>
    </g>
    <g id="xtick_22">
     <g id="line2d_22">
      <path clip-path="url(#pb98ba3255d)" d="M 295.2 290.88 
L 179.977063 101.403953 
" style="fill:none;stroke:#b0b0b0;stroke-linecap:square;stroke-width:0.8;"/>
     </g>
     <g id="text_22">
      <!-- Julia -->
      <g transform="translate(162.21695 92.201456)scale(0.1 -0.1)">
       <use xlink:href="#DejaVuSans-4a"/>
       <use x="29.492188" xlink:href="#DejaVuSans-75"/>
       <use x="92.871094" xlink:href="#DejaVuSans-6c"/>
       <use x="120.654297" xlink:href="#DejaVuSans-69"/>
       <use x="148.4375" xlink:href="#DejaVuSans-61"/>
      </g>
     </g>
    </g>
    <g id="xtick_23">
     <g id="line2d_23">
      <path clip-path="url(#pb98ba3255d)" d="M 295.2 290.88 
L 235.369868 77.343462 
" style="fill:none;stroke:#b0b0b0;stroke-linecap:square;stroke-width:0.8;"/>
     </g>
     <g id="text_23">
      <!-- OCaml -->
      <defs>
       <path d="M 39.40625 66.21875 
Q 28.65625 66.21875 22.328125 58.203125 
Q 16.015625 50.203125 16.015625 36.375 
Q 16.015625 22.609375 22.328125 14.59375 
Q 28.65625 6.59375 39.40625 6.59375 
Q 50.140625 6.59375 56.421875 14.59375 
Q 62.703125 22.609375 62.703125 36.375 
Q 62.703125 50.203125 56.421875 58.203125 
Q 50.140625 66.21875 39.40625 66.21875 
z
M 39.40625 74.21875 
Q 54.734375 74.21875 63.90625 63.9375 
Q 73.09375 53.65625 73.09375 36.375 
Q 73.09375 19.140625 63.90625 8.859375 
Q 54.734375 -1.421875 39.40625 -1.421875 
Q 24.03125 -1.421875 14.8125 8.828125 
Q 5.609375 19.09375 5.609375 36.375 
Q 5.609375 53.65625 14.8125 63.9375 
Q 24.03125 74.21875 39.40625 74.21875 
z
" id="DejaVuSans-4f"/>
       <path d="M 52 44.1875 
Q 55.375 50.25 60.0625 53.125 
Q 64.75 56 71.09375 56 
Q 79.640625 56 84.28125 50.015625 
Q 88.921875 44.046875 88.921875 33.015625 
L 88.921875 0 
L 79.890625 0 
L 79.890625 32.71875 
Q 79.890625 40.578125 77.09375 44.375 
Q 74.3125 48.1875 68.609375 48.1875 
Q 61.625 48.1875 57.5625 43.546875 
Q 53.515625 38.921875 53.515625 30.90625 
L 53.515625 0 
L 44.484375 0 
L 44.484375 32.71875 
Q 44.484375 40.625 41.703125 44.40625 
Q 38.921875 48.1875 33.109375 48.1875 
Q 26.21875 48.1875 22.15625 43.53125 
Q 18.109375 38.875 18.109375 30.90625 
L 18.109375 0 
L 9.078125 0 
L 9.078125 54.6875 
L 18.109375 54.6875 
L 18.109375 46.1875 
Q 21.1875 51.21875 25.484375 53.609375 
Q 29.78125 56 35.6875 56 
Q 41.65625 56 45.828125 52.96875 
Q 50 49.953125 52 44.1875 
z
" id="DejaVuSans-6d"/>
      </defs>
      <g transform="translate(214.841932 66.621995)scale(0.1 -0.1)">
       <use xlink:href="#DejaVuSans-4f"/>
       <use x="78.710938" xlink:href="#DejaVuSans-43"/>
       <use x="148.535156" xlink:href="#DejaVuSans-61"/>
       <use x="209.814453" xlink:href="#DejaVuSans-6d"/>
       <use x="307.226562" xlink:href="#DejaVuSans-6c"/>
      </g>
     </g>
    </g>
   </g>
   <g id="matplotlib.axis_2">
    <g id="ytick_1">
     <g id="line2d_24">
      <path clip-path="url(#pb98ba3255d)" d="M 295.2 216.96 
L 300.356399 217.140065 
L 305.487676 217.679384 
L 310.568832 218.575329 
L 315.575113 219.823535 
L 320.482129 221.417921 
L 325.265973 223.35072 
L 329.903338 225.612514 
L 334.371632 228.192285 
L 338.649086 231.077464 
L 342.71486 234.253995 
L 346.549147 237.706402 
L 350.133265 241.417866 
L 353.449755 245.370304 
L 356.482457 249.544461 
L 359.216598 253.92 
L 361.638856 258.475605 
L 363.737431 263.189081 
L 365.502098 268.037464 
L 366.92426 272.997133 
L 367.996989 278.043927 
L 368.715059 283.153256 
L 369.07497 288.300229 
L 369.07497 293.459771 
L 368.715059 298.606744 
L 367.996989 303.716073 
L 366.92426 308.762867 
L 365.502098 313.722536 
L 363.737431 318.570919 
L 361.638856 323.284395 
L 359.216598 327.84 
L 356.482457 332.215539 
L 353.449755 336.389696 
L 350.133265 340.342134 
L 346.549147 344.053598 
L 342.71486 347.506005 
L 338.649086 350.682536 
L 334.371632 353.567715 
L 329.903338 356.147486 
L 325.265973 358.40928 
L 320.482129 360.342079 
L 315.575113 361.936465 
L 310.568832 363.184671 
L 305.487676 364.080616 
L 300.356399 364.619935 
L 295.2 364.8 
L 290.043601 364.619935 
L 284.912324 364.080616 
L 279.831168 363.184671 
L 274.824887 361.936465 
L 269.917871 360.342079 
L 265.134027 358.40928 
L 260.496662 356.147486 
L 256.028368 353.567715 
L 251.750914 350.682536 
L 247.68514 347.506005 
L 243.850853 344.053598 
L 240.266735 340.342134 
L 236.950245 336.389696 
L 233.917543 332.215539 
L 231.183402 327.84 
L 228.761144 323.284395 
L 226.662569 318.570919 
L 224.897902 313.722536 
L 223.47574 308.762867 
L 222.403011 303.716073 
L 221.684941 298.606744 
L 221.32503 293.459771 
L 221.32503 288.300229 
L 221.684941 283.153256 
L 222.403011 278.043927 
L 223.47574 272.997133 
L 224.897902 268.037464 
L 226.662569 263.189081 
L 228.761144 258.475605 
L 231.183402 253.92 
L 233.917543 249.544461 
L 236.950245 245.370304 
L 240.266735 241.417866 
L 243.850853 237.706402 
L 247.68514 234.253995 
L 251.750914 231.077464 
L 256.028368 228.192285 
L 260.496662 225.612514 
L 265.134027 223.35072 
L 269.917871 221.417921 
L 274.824887 219.823535 
L 279.831168 218.575329 
L 284.912324 217.679384 
L 290.043601 217.140065 
L 295.2 216.96 
L 295.2 216.96 
" style="fill:none;stroke:#b0b0b0;stroke-linecap:square;stroke-width:0.8;"/>
     </g>
     <g id="text_24">
      <!-- 5% -->
      <defs>
       <path d="M 10.796875 72.90625 
L 49.515625 72.90625 
L 49.515625 64.59375 
L 19.828125 64.59375 
L 19.828125 46.734375 
Q 21.96875 47.46875 24.109375 47.828125 
Q 26.265625 48.1875 28.421875 48.1875 
Q 40.625 48.1875 47.75 41.5 
Q 54.890625 34.8125 54.890625 23.390625 
Q 54.890625 11.625 47.5625 5.09375 
Q 40.234375 -1.421875 26.90625 -1.421875 
Q 22.3125 -1.421875 17.546875 -0.640625 
Q 12.796875 0.140625 7.71875 1.703125 
L 7.71875 11.625 
Q 12.109375 9.234375 16.796875 8.0625 
Q 21.484375 6.890625 26.703125 6.890625 
Q 35.15625 6.890625 40.078125 11.328125 
Q 45.015625 15.765625 45.015625 23.390625 
Q 45.015625 31 40.078125 35.4375 
Q 35.15625 39.890625 26.703125 39.890625 
Q 22.75 39.890625 18.8125 39.015625 
Q 14.890625 38.140625 10.796875 36.28125 
z
" id="DejaVuSans-35"/>
       <path d="M 72.703125 32.078125 
Q 68.453125 32.078125 66.03125 28.46875 
Q 63.625 24.859375 63.625 18.40625 
Q 63.625 12.0625 66.03125 8.421875 
Q 68.453125 4.78125 72.703125 4.78125 
Q 76.859375 4.78125 79.265625 8.421875 
Q 81.6875 12.0625 81.6875 18.40625 
Q 81.6875 24.8125 79.265625 28.4375 
Q 76.859375 32.078125 72.703125 32.078125 
z
M 72.703125 38.28125 
Q 80.421875 38.28125 84.953125 32.90625 
Q 89.5 27.546875 89.5 18.40625 
Q 89.5 9.28125 84.9375 3.921875 
Q 80.375 -1.421875 72.703125 -1.421875 
Q 64.890625 -1.421875 60.34375 3.921875 
Q 55.8125 9.28125 55.8125 18.40625 
Q 55.8125 27.59375 60.375 32.9375 
Q 64.9375 38.28125 72.703125 38.28125 
z
M 22.3125 68.015625 
Q 18.109375 68.015625 15.6875 64.375 
Q 13.28125 60.75 13.28125 54.390625 
Q 13.28125 47.953125 15.671875 44.328125 
Q 18.0625 40.71875 22.3125 40.71875 
Q 26.5625 40.71875 28.96875 44.328125 
Q 31.390625 47.953125 31.390625 54.390625 
Q 31.390625 60.6875 28.953125 64.34375 
Q 26.515625 68.015625 22.3125 68.015625 
z
M 66.40625 74.21875 
L 74.21875 74.21875 
L 28.609375 -1.421875 
L 20.796875 -1.421875 
z
M 22.3125 74.21875 
Q 30.03125 74.21875 34.609375 68.875 
Q 39.203125 63.53125 39.203125 54.390625 
Q 39.203125 45.171875 34.640625 39.84375 
Q 30.078125 34.515625 22.3125 34.515625 
Q 14.546875 34.515625 10.03125 39.859375 
Q 5.515625 45.21875 5.515625 54.390625 
Q 5.515625 63.484375 10.046875 68.84375 
Q 14.59375 74.21875 22.3125 74.21875 
z
" id="DejaVuSans-25"/>
      </defs>
      <g style="fill:#808080;" transform="translate(295.2 214.464375)scale(0.12 -0.12)">
       <use xlink:href="#DejaVuSans-35"/>
       <use x="63.623047" xlink:href="#DejaVuSans-25"/>
      </g>
     </g>
    </g>
    <g id="ytick_2">
     <g id="line2d_25">
      <path clip-path="url(#pb98ba3255d)" d="M 295.2 143.04 
L 300.359542 143.13006 
L 305.512797 143.400131 
L 310.653488 143.849883 
L 315.775351 144.478769 
L 320.872147 145.286022 
L 325.937664 146.270659 
L 330.965733 147.43148 
L 335.950227 148.767071 
L 340.885072 150.275805 
L 345.764258 151.955843 
L 350.581839 153.805139 
L 355.331945 155.82144 
L 360.00879 158.002288 
L 364.606676 160.345028 
L 369.12 162.846804 
L 373.543264 165.504569 
L 377.871079 168.315085 
L 382.098172 171.274928 
L 386.219393 174.38049 
L 390.22972 177.62799 
L 394.124269 181.013469 
L 397.898293 184.532804 
L 401.547196 188.181707 
L 405.066531 191.955731 
L 408.45201 195.85028 
L 411.69951 199.860607 
L 414.805072 203.981828 
L 417.764915 208.208921 
L 420.575431 212.536736 
L 423.233196 216.96 
L 425.734972 221.473324 
L 428.077712 226.07121 
L 430.25856 230.748055 
L 432.274861 235.498161 
L 434.124157 240.315742 
L 435.804195 245.194928 
L 437.312929 250.129773 
L 438.64852 255.114267 
L 439.809341 260.142336 
L 440.793978 265.207853 
L 441.601231 270.304649 
L 442.230117 275.426512 
L 442.679869 280.567203 
L 442.94994 285.720458 
L 443.04 290.88 
L 442.94994 296.039542 
L 442.679869 301.192797 
L 442.230117 306.333488 
L 441.601231 311.455351 
L 440.793978 316.552147 
L 439.809341 321.617664 
L 438.64852 326.645733 
L 437.312929 331.630227 
L 435.804195 336.565072 
L 434.124157 341.444258 
L 432.274861 346.261839 
L 430.25856 351.011945 
L 428.077712 355.68879 
L 425.734972 360.286676 
L 423.233196 364.8 
L 420.575431 369.223264 
L 417.764915 373.551079 
L 414.805072 377.778172 
L 411.69951 381.899393 
L 408.45201 385.90972 
L 405.066531 389.804269 
L 401.547196 393.578293 
L 397.898293 397.227196 
L 394.124269 400.746531 
L 390.22972 404.13201 
L 386.219393 407.37951 
L 382.098172 410.485072 
L 377.871079 413.444915 
L 373.543264 416.255431 
L 369.12 418.913196 
L 364.606676 421.414972 
L 360.00879 423.757712 
L 355.331945 425.93856 
L 350.581839 427.954861 
L 345.764258 429.804157 
L 340.885072 431.484195 
L 335.950227 432.992929 
L 330.965733 434.32852 
L 325.937664 435.489341 
L 320.872147 436.473978 
L 315.775351 437.281231 
L 310.653488 437.910117 
L 305.512797 438.359869 
L 300.359542 438.62994 
L 295.2 438.72 
L 290.040458 438.62994 
L 284.887203 438.359869 
L 279.746512 437.910117 
L 274.624649 437.281231 
L 269.527853 436.473978 
L 264.462336 435.489341 
L 259.434267 434.32852 
L 254.449773 432.992929 
L 249.514928 431.484195 
L 244.635742 429.804157 
L 239.818161 427.954861 
L 235.068055 425.93856 
L 230.39121 423.757712 
L 225.793324 421.414972 
L 221.28 418.913196 
L 216.856736 416.255431 
L 212.528921 413.444915 
L 208.301828 410.485072 
L 204.180607 407.37951 
L 200.17028 404.13201 
L 196.275731 400.746531 
L 192.501707 397.227196 
L 188.852804 393.578293 
L 185.333469 389.804269 
L 181.94799 385.90972 
L 178.70049 381.899393 
L 175.594928 377.778172 
L 172.635085 373.551079 
L 169.824569 369.223264 
L 167.166804 364.8 
L 164.665028 360.286676 
L 162.322288 355.68879 
L 160.14144 351.011945 
L 158.125139 346.261839 
L 156.275843 341.444258 
L 154.595805 336.565072 
L 153.087071 331.630227 
L 151.75148 326.645733 
L 150.590659 321.617664 
L 149.606022 316.552147 
L 148.798769 311.455351 
L 148.169883 306.333488 
L 147.720131 301.192797 
L 147.45006 296.039542 
L 147.36 290.88 
L 147.45006 285.720458 
L 147.720131 280.567203 
L 148.169883 275.426512 
L 148.798769 270.304649 
L 149.606022 265.207853 
L 150.590659 260.142336 
L 151.75148 255.114267 
L 153.087071 250.129773 
L 154.595805 245.194928 
L 156.275843 240.315742 
L 158.125139 235.498161 
L 160.14144 230.748055 
L 162.322288 226.07121 
L 164.665028 221.473324 
L 167.166804 216.96 
L 169.824569 212.536736 
L 172.635085 208.208921 
L 175.594928 203.981828 
L 178.70049 199.860607 
L 181.94799 195.85028 
L 185.333469 191.955731 
L 188.852804 188.181707 
L 192.501707 184.532804 
L 196.275731 181.013469 
L 200.17028 177.62799 
L 204.180607 174.38049 
L 208.301828 171.274928 
L 212.528921 168.315085 
L 216.856736 165.504569 
L 221.28 162.846804 
L 225.793324 160.345028 
L 230.39121 158.002288 
L 235.068055 155.82144 
L 239.818161 153.805139 
L 244.635742 151.955843 
L 249.514928 150.275805 
L 254.449773 148.767071 
L 259.434267 147.43148 
L 264.462336 146.270659 
L 269.527853 145.286022 
L 274.624649 144.478769 
L 279.746512 143.849883 
L 284.887203 143.400131 
L 290.040458 143.13006 
L 295.2 143.04 
L 295.2 143.04 
" style="fill:none;stroke:#b0b0b0;stroke-linecap:square;stroke-width:0.8;"/>
     </g>
     <g id="text_25">
      <!-- 10% -->
      <defs>
       <path d="M 12.40625 8.296875 
L 28.515625 8.296875 
L 28.515625 63.921875 
L 10.984375 60.40625 
L 10.984375 69.390625 
L 28.421875 72.90625 
L 38.28125 72.90625 
L 38.28125 8.296875 
L 54.390625 8.296875 
L 54.390625 0 
L 12.40625 0 
z
" id="DejaVuSans-31"/>
       <path d="M 31.78125 66.40625 
Q 24.171875 66.40625 20.328125 58.90625 
Q 16.5 51.421875 16.5 36.375 
Q 16.5 21.390625 20.328125 13.890625 
Q 24.171875 6.390625 31.78125 6.390625 
Q 39.453125 6.390625 43.28125 13.890625 
Q 47.125 21.390625 47.125 36.375 
Q 47.125 51.421875 43.28125 58.90625 
Q 39.453125 66.40625 31.78125 66.40625 
z
M 31.78125 74.21875 
Q 44.046875 74.21875 50.515625 64.515625 
Q 56.984375 54.828125 56.984375 36.375 
Q 56.984375 17.96875 50.515625 8.265625 
Q 44.046875 -1.421875 31.78125 -1.421875 
Q 19.53125 -1.421875 13.0625 8.265625 
Q 6.59375 17.96875 6.59375 36.375 
Q 6.59375 54.828125 13.0625 64.515625 
Q 19.53125 74.21875 31.78125 74.21875 
z
" id="DejaVuSans-30"/>
      </defs>
      <g style="fill:#808080;" transform="translate(295.2 140.544375)scale(0.12 -0.12)">
       <use xlink:href="#DejaVuSans-31"/>
       <use x="63.623047" xlink:href="#DejaVuSans-30"/>
       <use x="127.246094" xlink:href="#DejaVuSans-25"/>
      </g>
     </g>
    </g>
    <g id="ytick_3">
     <g id="line2d_26">
      <path clip-path="url(#pb98ba3255d)" d="M 295.2 69.12 
L 302.939312 69.25509 
L 310.669196 69.660196 
L 318.380232 70.334824 
L 326.063027 71.278153 
L 333.70822 72.489033 
L 341.306497 73.965988 
L 348.8486 75.70722 
L 356.32534 77.710606 
L 363.727609 79.973707 
L 371.046387 82.493764 
L 378.272758 85.267708 
L 385.397918 88.292159 
L 392.413186 91.563432 
L 399.310014 95.077542 
L 406.08 98.830206 
L 412.714896 102.816854 
L 419.206618 107.032628 
L 425.547258 111.472391 
L 431.729089 116.130735 
L 437.74458 121.001984 
L 443.586403 126.080204 
L 449.24744 131.359206 
L 454.720794 136.83256 
L 459.999796 142.493597 
L 465.078016 148.33542 
L 469.949265 154.350911 
L 474.607609 160.532742 
L 479.047372 166.873382 
L 483.263146 173.365104 
L 487.249794 180 
L 491.002458 186.769986 
L 494.516568 193.666814 
L 497.787841 200.682082 
L 500.812292 207.807242 
L 503.586236 215.033613 
L 506.106293 222.352391 
L 508.369394 229.75466 
L 510.37278 237.2314 
L 512.114012 244.773503 
L 513.590967 252.37178 
L 514.801847 260.016973 
L 515.745176 267.699768 
L 516.419804 275.410804 
L 516.82491 283.140688 
L 516.96 290.88 
L 516.82491 298.619312 
L 516.419804 306.349196 
L 515.745176 314.060232 
L 514.801847 321.743027 
L 513.590967 329.38822 
L 512.114012 336.986497 
L 510.37278 344.5286 
L 508.369394 352.00534 
L 506.106293 359.407609 
L 503.586236 366.726387 
L 500.812292 373.952758 
L 497.787841 381.077918 
L 494.516568 388.093186 
L 491.002458 394.990014 
L 487.249794 401.76 
L 483.263146 408.394896 
L 479.047372 414.886618 
L 474.607609 421.227258 
L 469.949265 427.409089 
L 465.078016 433.42458 
L 459.999796 439.266403 
L 454.720794 444.92744 
L 449.24744 450.400794 
L 443.586403 455.679796 
L 437.74458 460.758016 
L 431.729089 465.629265 
L 425.547258 470.287609 
L 419.206618 474.727372 
L 412.714896 478.943146 
L 406.08 482.929794 
L 399.310014 486.682458 
L 392.413186 490.196568 
L 385.397918 493.467841 
L 378.272758 496.492292 
L 371.046387 499.266236 
L 363.727609 501.786293 
L 356.32534 504.049394 
L 348.8486 506.05278 
L 341.306497 507.794012 
L 333.70822 509.270967 
L 326.063027 510.481847 
L 318.380232 511.425176 
L 310.669196 512.099804 
L 302.939312 512.50491 
L 295.2 512.64 
L 287.460688 512.50491 
L 279.730804 512.099804 
L 272.019768 511.425176 
L 264.336973 510.481847 
L 256.69178 509.270967 
L 249.093503 507.794012 
L 241.5514 506.05278 
L 234.07466 504.049394 
L 226.672391 501.786293 
L 219.353613 499.266236 
L 212.127242 496.492292 
L 205.002082 493.467841 
L 197.986814 490.196568 
L 191.089986 486.682458 
L 184.32 482.929794 
L 177.685104 478.943146 
L 171.193382 474.727372 
L 164.852742 470.287609 
L 158.670911 465.629265 
L 152.65542 460.758016 
L 146.813597 455.679796 
L 141.15256 450.400794 
L 135.679206 444.92744 
L 130.400204 439.266403 
L 125.321984 433.42458 
L 120.450735 427.409089 
L 115.792391 421.227258 
L 111.352628 414.886618 
L 107.136854 408.394896 
L 103.150206 401.76 
L 99.397542 394.990014 
L 95.883432 388.093186 
L 92.612159 381.077918 
L 89.587708 373.952758 
L 86.813764 366.726387 
L 84.293707 359.407609 
L 82.030606 352.00534 
L 80.02722 344.5286 
L 78.285988 336.986497 
L 76.809033 329.38822 
L 75.598153 321.743027 
L 74.654824 314.060232 
L 73.980196 306.349196 
L 73.57509 298.619312 
L 73.44 290.88 
L 73.57509 283.140688 
L 73.980196 275.410804 
L 74.654824 267.699768 
L 75.598153 260.016973 
L 76.809033 252.37178 
L 78.285988 244.773503 
L 80.02722 237.2314 
L 82.030606 229.75466 
L 84.293707 222.352391 
L 86.813764 215.033613 
L 89.587708 207.807242 
L 92.612159 200.682082 
L 95.883432 193.666814 
L 99.397542 186.769986 
L 103.150206 180 
L 107.136854 173.365104 
L 111.352628 166.873382 
L 115.792391 160.532742 
L 120.450735 154.350911 
L 125.321984 148.33542 
L 130.400204 142.493597 
L 135.679206 136.83256 
L 141.15256 131.359206 
L 146.813597 126.080204 
L 152.65542 121.001984 
L 158.670911 116.130735 
L 164.852742 111.472391 
L 171.193382 107.032628 
L 177.685104 102.816854 
L 184.32 98.830206 
L 191.089986 95.077542 
L 197.986814 91.563432 
L 205.002082 88.292159 
L 212.127242 85.267708 
L 219.353613 82.493764 
L 226.672391 79.973707 
L 234.07466 77.710606 
L 241.5514 75.70722 
L 249.093503 73.965988 
L 256.69178 72.489033 
L 264.336973 71.278153 
L 272.019768 70.334824 
L 279.730804 69.660196 
L 287.460688 69.25509 
L 295.2 69.12 
L 295.2 69.12 
" style="fill:none;stroke:#b0b0b0;stroke-linecap:square;stroke-width:0.8;"/>
     </g>
     <g id="text_26">
      <!-- 15% -->
      <g style="fill:#808080;" transform="translate(295.2 66.624375)scale(0.12 -0.12)">
       <use xlink:href="#DejaVuSans-31"/>
       <use x="63.623047" xlink:href="#DejaVuSans-35"/>
       <use x="127.246094" xlink:href="#DejaVuSans-25"/>
      </g>
     </g>
    </g>
   </g>
   <g id="line2d_27">
    <path clip-path="url(#pb98ba3255d)" d="M 295.2 144.926643 
L 331.88033 159.966189 
L 382.772171 146.873701 
L 425.4089 169.273376 
L 346.010801 264.551965 
L 451.37083 258.427328 
L 395.488992 297.739955 
L 353.813178 311.711128 
L 333.13518 317.657574 
L 312.307164 311.907529 
L 312.566062 330.860685 
L 298.207584 312.7618 
L 292.38039 311.394188 
L 272.250799 343.714361 
L 275.690441 314.860469 
L 280.572741 301.205047 
L 262.95684 302.339222 
L 272.245799 292.45011 
L 257.887746 283.126424 
L 238.074991 261.280206 
L 279.516232 276.232384 
L 289.679193 281.80142 
L 291.904413 279.117898 
L 295.2 144.926643 
" style="fill:none;stroke:#1f77b4;stroke-linecap:square;"/>
   </g>
   <g id="line2d_28">
    <path clip-path="url(#pb98ba3255d)" d="M 295.2 107.193619 
L 347.432551 104.459585 
L 394.107998 128.232726 
L 452.600034 143.878631 
L 337.051759 269.194166 
L 420.83734 264.77226 
L 362.84715 295.507192 
L 327.312996 302.292961 
L 316.346901 305.807113 
L 310.002066 309.074184 
L 310.829985 326.863834 
L 297.877647 310.36133 
L 293.034061 306.638374 
L 267.076352 355.627131 
L 278.455673 311.461542 
L 280.034575 301.584926 
L 253.044062 305.862224 
L 275.936884 292.197633 
L 260.97564 283.768096 
L 269.053437 277.331943 
L 282.840972 279.337474 
L 286.564908 276.680195 
L 290.821066 275.251381 
L 295.2 107.193619 
" style="fill:none;stroke:#ff7f0e;stroke-linecap:square;"/>
   </g>
   <g id="patch_5">
    <path d="M 295.2 69.12 
C 266.078744 69.12 237.240655 74.856253 210.336122 86.000475 
C 183.431589 97.144697 158.983838 113.480162 138.392 134.072 
C 117.800162 154.663838 101.464697 179.111589 90.320475 206.016122 
C 79.176253 232.920655 73.44 261.758744 73.44 290.88 
C 73.44 320.001256 79.176253 348.839345 90.320475 375.743878 
C 101.464697 402.648411 117.800162 427.096162 138.392 447.688 
C 158.983838 468.279838 183.431589 484.615303 210.336122 495.759525 
C 237.240655 506.903747 266.078744 512.64 295.2 512.64 
C 324.321256 512.64 353.159345 506.903747 380.063878 495.759525 
C 406.968411 484.615303 431.416162 468.279838 452.008 447.688 
C 472.599838 427.096162 488.935303 402.648411 500.079525 375.743878 
C 511.223747 348.839345 516.96 320.001256 516.96 290.88 
C 516.96 261.758744 511.223747 232.920655 500.079525 206.016122 
C 488.935303 179.111589 472.599838 154.663838 452.008 134.072 
C 431.416162 113.480162 406.968411 97.144697 380.063878 86.000475 
C 353.159345 74.856253 324.321256 69.12 295.2 69.12 
" style="fill:none;stroke:#000000;stroke-linecap:square;stroke-linejoin:miter;stroke-width:0.8;"/>
   </g>
   <g id="text_27">
    <!-- Which programming language do people love the most? -->
    <defs>
     <path d="M 2.984375 72.90625 
L 21 72.90625 
L 33.59375 19.921875 
L 46.09375 72.90625 
L 64.203125 72.90625 
L 76.703125 19.921875 
L 89.3125 72.90625 
L 107.171875 72.90625 
L 89.984375 0 
L 68.3125 0 
L 55.078125 55.421875 
L 42 0 
L 20.3125 0 
z
" id="DejaVuSans-Bold-57"/>
     <path d="M 63.375 33.296875 
L 63.375 0 
L 45.796875 0 
L 45.796875 5.421875 
L 45.796875 25.390625 
Q 45.796875 32.5625 45.484375 35.25 
Q 45.171875 37.9375 44.390625 39.203125 
Q 43.359375 40.921875 41.59375 41.875 
Q 39.84375 42.828125 37.59375 42.828125 
Q 32.125 42.828125 29 38.59375 
Q 25.875 34.375 25.875 26.90625 
L 25.875 0 
L 8.40625 0 
L 8.40625 75.984375 
L 25.875 75.984375 
L 25.875 46.6875 
Q 29.828125 51.46875 34.265625 53.734375 
Q 38.71875 56 44.09375 56 
Q 53.5625 56 58.46875 50.1875 
Q 63.375 44.390625 63.375 33.296875 
z
" id="DejaVuSans-Bold-68"/>
     <path d="M 8.40625 54.6875 
L 25.875 54.6875 
L 25.875 0 
L 8.40625 0 
z
M 8.40625 75.984375 
L 25.875 75.984375 
L 25.875 61.71875 
L 8.40625 61.71875 
z
" id="DejaVuSans-Bold-69"/>
     <path d="M 52.59375 52.984375 
L 52.59375 38.71875 
Q 49.03125 41.15625 45.4375 42.328125 
Q 41.84375 43.5 37.984375 43.5 
Q 30.671875 43.5 26.59375 39.234375 
Q 22.515625 34.96875 22.515625 27.296875 
Q 22.515625 19.625 26.59375 15.34375 
Q 30.671875 11.078125 37.984375 11.078125 
Q 42.09375 11.078125 45.78125 12.296875 
Q 49.46875 13.53125 52.59375 15.921875 
L 52.59375 1.609375 
Q 48.484375 0.09375 44.265625 -0.65625 
Q 40.046875 -1.421875 35.796875 -1.421875 
Q 21 -1.421875 12.640625 6.171875 
Q 4.296875 13.765625 4.296875 27.296875 
Q 4.296875 40.828125 12.640625 48.40625 
Q 21 56 35.796875 56 
Q 40.09375 56 44.265625 55.25 
Q 48.4375 54.5 52.59375 52.984375 
z
" id="DejaVuSans-Bold-63"/>
     <path id="DejaVuSans-Bold-20"/>
     <path d="M 25.875 7.90625 
L 25.875 -20.796875 
L 8.40625 -20.796875 
L 8.40625 54.6875 
L 25.875 54.6875 
L 25.875 46.6875 
Q 29.5 51.46875 33.890625 53.734375 
Q 38.28125 56 44 56 
Q 54.109375 56 60.59375 47.96875 
Q 67.09375 39.9375 67.09375 27.296875 
Q 67.09375 14.65625 60.59375 6.609375 
Q 54.109375 -1.421875 44 -1.421875 
Q 38.28125 -1.421875 33.890625 0.84375 
Q 29.5 3.125 25.875 7.90625 
z
M 37.5 43.3125 
Q 31.890625 43.3125 28.875 39.1875 
Q 25.875 35.0625 25.875 27.296875 
Q 25.875 19.53125 28.875 15.40625 
Q 31.890625 11.28125 37.5 11.28125 
Q 43.109375 11.28125 46.0625 15.375 
Q 49.03125 19.484375 49.03125 27.296875 
Q 49.03125 35.109375 46.0625 39.203125 
Q 43.109375 43.3125 37.5 43.3125 
z
" id="DejaVuSans-Bold-70"/>
     <path d="M 49.03125 39.796875 
Q 46.734375 40.875 44.453125 41.375 
Q 42.1875 41.890625 39.890625 41.890625 
Q 33.15625 41.890625 29.515625 37.5625 
Q 25.875 33.25 25.875 25.203125 
L 25.875 0 
L 8.40625 0 
L 8.40625 54.6875 
L 25.875 54.6875 
L 25.875 45.703125 
Q 29.25 51.078125 33.609375 53.53125 
Q 37.984375 56 44.09375 56 
Q 44.96875 56 45.984375 55.921875 
Q 47.015625 55.859375 48.96875 55.609375 
z
" id="DejaVuSans-Bold-72"/>
     <path d="M 34.421875 43.5 
Q 28.609375 43.5 25.5625 39.328125 
Q 22.515625 35.15625 22.515625 27.296875 
Q 22.515625 19.4375 25.5625 15.25 
Q 28.609375 11.078125 34.421875 11.078125 
Q 40.140625 11.078125 43.15625 15.25 
Q 46.1875 19.4375 46.1875 27.296875 
Q 46.1875 35.15625 43.15625 39.328125 
Q 40.140625 43.5 34.421875 43.5 
z
M 34.421875 56 
Q 48.53125 56 56.46875 48.375 
Q 64.40625 40.765625 64.40625 27.296875 
Q 64.40625 13.8125 56.46875 6.1875 
Q 48.53125 -1.421875 34.421875 -1.421875 
Q 20.265625 -1.421875 12.28125 6.1875 
Q 4.296875 13.8125 4.296875 27.296875 
Q 4.296875 40.765625 12.28125 48.375 
Q 20.265625 56 34.421875 56 
z
" id="DejaVuSans-Bold-6f"/>
     <path d="M 45.609375 9.28125 
Q 42 4.5 37.640625 2.25 
Q 33.296875 0 27.59375 0 
Q 17.578125 0 11.03125 7.875 
Q 4.5 15.765625 4.5 27.984375 
Q 4.5 40.234375 11.03125 48.0625 
Q 17.578125 55.90625 27.59375 55.90625 
Q 33.296875 55.90625 37.640625 53.65625 
Q 42 51.421875 45.609375 46.578125 
L 45.609375 54.6875 
L 63.1875 54.6875 
L 63.1875 5.515625 
Q 63.1875 -7.671875 54.859375 -14.625 
Q 46.53125 -21.578125 30.71875 -21.578125 
Q 25.59375 -21.578125 20.796875 -20.796875 
Q 16.015625 -20.015625 11.1875 -18.40625 
L 11.1875 -4.78125 
Q 15.765625 -7.421875 20.15625 -8.71875 
Q 24.5625 -10.015625 29 -10.015625 
Q 37.59375 -10.015625 41.59375 -6.25 
Q 45.609375 -2.484375 45.609375 5.515625 
z
M 34.078125 43.3125 
Q 28.65625 43.3125 25.625 39.296875 
Q 22.609375 35.296875 22.609375 27.984375 
Q 22.609375 20.453125 25.53125 16.578125 
Q 28.46875 12.703125 34.078125 12.703125 
Q 39.546875 12.703125 42.578125 16.703125 
Q 45.609375 20.703125 45.609375 27.984375 
Q 45.609375 35.296875 42.578125 39.296875 
Q 39.546875 43.3125 34.078125 43.3125 
z
" id="DejaVuSans-Bold-67"/>
     <path d="M 32.90625 24.609375 
Q 27.4375 24.609375 24.671875 22.75 
Q 21.921875 20.90625 21.921875 17.28125 
Q 21.921875 13.96875 24.140625 12.078125 
Q 26.375 10.203125 30.328125 10.203125 
Q 35.25 10.203125 38.625 13.734375 
Q 42 17.28125 42 22.609375 
L 42 24.609375 
z
M 59.625 31.203125 
L 59.625 0 
L 42 0 
L 42 8.109375 
Q 38.484375 3.125 34.078125 0.84375 
Q 29.6875 -1.421875 23.390625 -1.421875 
Q 14.890625 -1.421875 9.59375 3.53125 
Q 4.296875 8.5 4.296875 16.40625 
Q 4.296875 26.03125 10.90625 30.515625 
Q 17.53125 35.015625 31.6875 35.015625 
L 42 35.015625 
L 42 36.375 
Q 42 40.53125 38.71875 42.453125 
Q 35.453125 44.390625 28.515625 44.390625 
Q 22.90625 44.390625 18.0625 43.265625 
Q 13.234375 42.140625 9.078125 39.890625 
L 9.078125 53.21875 
Q 14.703125 54.59375 20.359375 55.296875 
Q 26.03125 56 31.6875 56 
Q 46.484375 56 53.046875 50.171875 
Q 59.625 44.34375 59.625 31.203125 
z
" id="DejaVuSans-Bold-61"/>
     <path d="M 59.078125 45.609375 
Q 62.40625 50.6875 66.96875 53.34375 
Q 71.53125 56 77 56 
Q 86.421875 56 91.359375 50.1875 
Q 96.296875 44.390625 96.296875 33.296875 
L 96.296875 0 
L 78.71875 0 
L 78.71875 28.515625 
Q 78.765625 29.15625 78.78125 29.828125 
Q 78.8125 30.515625 78.8125 31.78125 
Q 78.8125 37.59375 77.09375 40.203125 
Q 75.390625 42.828125 71.578125 42.828125 
Q 66.609375 42.828125 63.890625 38.71875 
Q 61.1875 34.625 61.078125 26.859375 
L 61.078125 0 
L 43.5 0 
L 43.5 28.515625 
Q 43.5 37.59375 41.9375 40.203125 
Q 40.375 42.828125 36.375 42.828125 
Q 31.34375 42.828125 28.609375 38.703125 
Q 25.875 34.578125 25.875 26.90625 
L 25.875 0 
L 8.296875 0 
L 8.296875 54.6875 
L 25.875 54.6875 
L 25.875 46.6875 
Q 29.109375 51.3125 33.28125 53.65625 
Q 37.453125 56 42.484375 56 
Q 48.140625 56 52.484375 53.265625 
Q 56.84375 50.53125 59.078125 45.609375 
z
" id="DejaVuSans-Bold-6d"/>
     <path d="M 63.375 33.296875 
L 63.375 0 
L 45.796875 0 
L 45.796875 5.421875 
L 45.796875 25.484375 
Q 45.796875 32.5625 45.484375 35.25 
Q 45.171875 37.9375 44.390625 39.203125 
Q 43.359375 40.921875 41.59375 41.875 
Q 39.84375 42.828125 37.59375 42.828125 
Q 32.125 42.828125 29 38.59375 
Q 25.875 34.375 25.875 26.90625 
L 25.875 0 
L 8.40625 0 
L 8.40625 54.6875 
L 25.875 54.6875 
L 25.875 46.6875 
Q 29.828125 51.46875 34.265625 53.734375 
Q 38.71875 56 44.09375 56 
Q 53.5625 56 58.46875 50.1875 
Q 63.375 44.390625 63.375 33.296875 
z
" id="DejaVuSans-Bold-6e"/>
     <path d="M 8.40625 75.984375 
L 25.875 75.984375 
L 25.875 0 
L 8.40625 0 
z
" id="DejaVuSans-Bold-6c"/>
     <path d="M 7.8125 21.296875 
L 7.8125 54.6875 
L 25.390625 54.6875 
L 25.390625 49.21875 
Q 25.390625 44.78125 25.34375 38.0625 
Q 25.296875 31.34375 25.296875 29.109375 
Q 25.296875 22.515625 25.640625 19.609375 
Q 25.984375 16.703125 26.8125 15.375 
Q 27.875 13.671875 29.609375 12.734375 
Q 31.34375 11.8125 33.59375 11.8125 
Q 39.0625 11.8125 42.1875 16.015625 
Q 45.3125 20.21875 45.3125 27.6875 
L 45.3125 54.6875 
L 62.796875 54.6875 
L 62.796875 0 
L 45.3125 0 
L 45.3125 7.90625 
Q 41.359375 3.125 36.9375 0.84375 
Q 32.515625 -1.421875 27.203125 -1.421875 
Q 17.71875 -1.421875 12.765625 4.390625 
Q 7.8125 10.203125 7.8125 21.296875 
z
" id="DejaVuSans-Bold-75"/>
     <path d="M 62.984375 27.484375 
L 62.984375 22.515625 
L 22.125 22.515625 
Q 22.75 16.359375 26.5625 13.28125 
Q 30.375 10.203125 37.203125 10.203125 
Q 42.71875 10.203125 48.5 11.84375 
Q 54.296875 13.484375 60.40625 16.796875 
L 60.40625 3.328125 
Q 54.203125 0.984375 48 -0.21875 
Q 41.796875 -1.421875 35.59375 -1.421875 
Q 20.75 -1.421875 12.515625 6.125 
Q 4.296875 13.671875 4.296875 27.296875 
Q 4.296875 40.671875 12.375 48.328125 
Q 20.453125 56 34.625 56 
Q 47.515625 56 55.25 48.234375 
Q 62.984375 40.484375 62.984375 27.484375 
z
M 45.015625 33.296875 
Q 45.015625 38.28125 42.109375 41.328125 
Q 39.203125 44.390625 34.515625 44.390625 
Q 29.4375 44.390625 26.265625 41.53125 
Q 23.09375 38.671875 22.3125 33.296875 
z
" id="DejaVuSans-Bold-65"/>
     <path d="M 45.609375 46.6875 
L 45.609375 75.984375 
L 63.1875 75.984375 
L 63.1875 0 
L 45.609375 0 
L 45.609375 7.90625 
Q 42 3.078125 37.640625 0.828125 
Q 33.296875 -1.421875 27.59375 -1.421875 
Q 17.484375 -1.421875 10.984375 6.609375 
Q 4.5 14.65625 4.5 27.296875 
Q 4.5 39.9375 10.984375 47.96875 
Q 17.484375 56 27.59375 56 
Q 33.25 56 37.625 53.734375 
Q 42 51.46875 45.609375 46.6875 
z
M 34.078125 11.28125 
Q 39.703125 11.28125 42.65625 15.375 
Q 45.609375 19.484375 45.609375 27.296875 
Q 45.609375 35.109375 42.65625 39.203125 
Q 39.703125 43.3125 34.078125 43.3125 
Q 28.515625 43.3125 25.5625 39.203125 
Q 22.609375 35.109375 22.609375 27.296875 
Q 22.609375 19.484375 25.5625 15.375 
Q 28.515625 11.28125 34.078125 11.28125 
z
" id="DejaVuSans-Bold-64"/>
     <path d="M 1.515625 54.6875 
L 19 54.6875 
L 32.625 16.890625 
L 46.1875 54.6875 
L 63.71875 54.6875 
L 42.1875 0 
L 23 0 
z
" id="DejaVuSans-Bold-76"/>
     <path d="M 27.484375 70.21875 
L 27.484375 54.6875 
L 45.515625 54.6875 
L 45.515625 42.1875 
L 27.484375 42.1875 
L 27.484375 19 
Q 27.484375 15.1875 29 13.84375 
Q 30.515625 12.5 35.015625 12.5 
L 44 12.5 
L 44 0 
L 29 0 
Q 18.65625 0 14.328125 4.3125 
Q 10.015625 8.640625 10.015625 19 
L 10.015625 42.1875 
L 1.3125 42.1875 
L 1.3125 54.6875 
L 10.015625 54.6875 
L 10.015625 70.21875 
z
" id="DejaVuSans-Bold-74"/>
     <path d="M 51.125 52.984375 
L 51.125 39.703125 
Q 45.515625 42.046875 40.28125 43.21875 
Q 35.0625 44.390625 30.421875 44.390625 
Q 25.4375 44.390625 23.015625 43.140625 
Q 20.609375 41.890625 20.609375 39.3125 
Q 20.609375 37.203125 22.4375 36.078125 
Q 24.265625 34.96875 29 34.421875 
L 32.078125 33.984375 
Q 45.515625 32.28125 50.140625 28.375 
Q 54.78125 24.46875 54.78125 16.109375 
Q 54.78125 7.375 48.328125 2.96875 
Q 41.890625 -1.421875 29.109375 -1.421875 
Q 23.6875 -1.421875 17.890625 -0.5625 
Q 12.109375 0.296875 6 2 
L 6 15.28125 
Q 11.234375 12.75 16.71875 11.46875 
Q 22.21875 10.203125 27.875 10.203125 
Q 33.015625 10.203125 35.59375 11.609375 
Q 38.1875 13.03125 38.1875 15.828125 
Q 38.1875 18.171875 36.40625 19.3125 
Q 34.625 20.453125 29.296875 21.09375 
L 26.21875 21.484375 
Q 14.546875 22.953125 9.859375 26.90625 
Q 5.171875 30.859375 5.171875 38.921875 
Q 5.171875 47.609375 11.125 51.796875 
Q 17.09375 56 29.390625 56 
Q 34.234375 56 39.546875 55.265625 
Q 44.875 54.546875 51.125 52.984375 
z
" id="DejaVuSans-Bold-73"/>
     <path d="M 34.625 24.609375 
L 17 24.609375 
L 17 27 
Q 17 31 18.609375 34.09375 
Q 20.21875 37.203125 25.390625 42 
L 28.515625 44.828125 
Q 31.296875 47.359375 32.59375 49.609375 
Q 33.890625 51.859375 33.890625 54.109375 
Q 33.890625 57.515625 31.546875 59.4375 
Q 29.203125 61.375 25 61.375 
Q 21.046875 61.375 16.453125 59.734375 
Q 11.859375 58.109375 6.890625 54.890625 
L 6.890625 70.21875 
Q 12.796875 72.265625 17.671875 73.234375 
Q 22.5625 74.21875 27.09375 74.21875 
Q 39.015625 74.21875 45.265625 69.359375 
Q 51.515625 64.5 51.515625 55.171875 
Q 51.515625 50.390625 49.609375 46.609375 
Q 47.703125 42.828125 43.109375 38.484375 
L 39.984375 35.6875 
Q 36.671875 32.671875 35.640625 30.828125 
Q 34.625 29 34.625 26.8125 
z
M 17 17.390625 
L 34.625 17.390625 
L 34.625 0 
L 17 0 
z
" id="DejaVuSans-Bold-3f"/>
    </defs>
    <g transform="translate(74.064531 40.944)scale(0.14 -0.14)">
     <use xlink:href="#DejaVuSans-Bold-57"/>
     <use x="110.302734" xlink:href="#DejaVuSans-Bold-68"/>
     <use x="181.494141" xlink:href="#DejaVuSans-Bold-69"/>
     <use x="215.771484" xlink:href="#DejaVuSans-Bold-63"/>
     <use x="275.048828" xlink:href="#DejaVuSans-Bold-68"/>
     <use x="346.240234" xlink:href="#DejaVuSans-Bold-20"/>
     <use x="381.054688" xlink:href="#DejaVuSans-Bold-70"/>
     <use x="452.636719" xlink:href="#DejaVuSans-Bold-72"/>
     <use x="501.953125" xlink:href="#DejaVuSans-Bold-6f"/>
     <use x="570.654297" xlink:href="#DejaVuSans-Bold-67"/>
     <use x="642.236328" xlink:href="#DejaVuSans-Bold-72"/>
     <use x="691.552734" xlink:href="#DejaVuSans-Bold-61"/>
     <use x="759.033203" xlink:href="#DejaVuSans-Bold-6d"/>
     <use x="863.232422" xlink:href="#DejaVuSans-Bold-6d"/>
     <use x="967.431641" xlink:href="#DejaVuSans-Bold-69"/>
     <use x="1001.708984" xlink:href="#DejaVuSans-Bold-6e"/>
     <use x="1072.900391" xlink:href="#DejaVuSans-Bold-67"/>
     <use x="1144.482422" xlink:href="#DejaVuSans-Bold-20"/>
     <use x="1179.296875" xlink:href="#DejaVuSans-Bold-6c"/>
     <use x="1213.574219" xlink:href="#DejaVuSans-Bold-61"/>
     <use x="1281.054688" xlink:href="#DejaVuSans-Bold-6e"/>
     <use x="1352.246094" xlink:href="#DejaVuSans-Bold-67"/>
     <use x="1423.828125" xlink:href="#DejaVuSans-Bold-75"/>
     <use x="1495.019531" xlink:href="#DejaVuSans-Bold-61"/>
     <use x="1562.5" xlink:href="#DejaVuSans-Bold-67"/>
     <use x="1634.082031" xlink:href="#DejaVuSans-Bold-65"/>
     <use x="1701.904297" xlink:href="#DejaVuSans-Bold-20"/>
     <use x="1736.71875" xlink:href="#DejaVuSans-Bold-64"/>
     <use x="1808.300781" xlink:href="#DejaVuSans-Bold-6f"/>
     <use x="1877.001953" xlink:href="#DejaVuSans-Bold-20"/>
     <use x="1911.816406" xlink:href="#DejaVuSans-Bold-70"/>
     <use x="1983.398438" xlink:href="#DejaVuSans-Bold-65"/>
     <use x="2051.220703" xlink:href="#DejaVuSans-Bold-6f"/>
     <use x="2119.921875" xlink:href="#DejaVuSans-Bold-70"/>
     <use x="2191.503906" xlink:href="#DejaVuSans-Bold-6c"/>
     <use x="2225.78125" xlink:href="#DejaVuSans-Bold-65"/>
     <use x="2293.603516" xlink:href="#DejaVuSans-Bold-20"/>
     <use x="2328.417969" xlink:href="#DejaVuSans-Bold-6c"/>
     <use x="2362.695312" xlink:href="#DejaVuSans-Bold-6f"/>
     <use x="2431.396484" xlink:href="#DejaVuSans-Bold-76"/>
     <use x="2496.582031" xlink:href="#DejaVuSans-Bold-65"/>
     <use x="2564.404297" xlink:href="#DejaVuSans-Bold-20"/>
     <use x="2599.21875" xlink:href="#DejaVuSans-Bold-74"/>
     <use x="2647.021484" xlink:href="#DejaVuSans-Bold-68"/>
     <use x="2718.212891" xlink:href="#DejaVuSans-Bold-65"/>
     <use x="2786.035156" xlink:href="#DejaVuSans-Bold-20"/>
     <use x="2820.849609" xlink:href="#DejaVuSans-Bold-6d"/>
     <use x="2925.048828" xlink:href="#DejaVuSans-Bold-6f"/>
     <use x="2993.75" xlink:href="#DejaVuSans-Bold-73"/>
     <use x="3053.271484" xlink:href="#DejaVuSans-Bold-74"/>
     <use x="3101.074219" xlink:href="#DejaVuSans-Bold-3f"/>
    </g>
   </g>
   <g id="legend_1">
    <g id="patch_6">
     <path d="M -13.259562 505.64425 
L 110.792 505.64425 
Q 112.792 505.64425 112.792 503.64425 
L 112.792 475.288 
Q 112.792 473.288 110.792 473.288 
L -13.259562 473.288 
Q -15.259562 473.288 -15.259562 475.288 
L -15.259562 503.64425 
Q -15.259562 505.64425 -13.259562 505.64425 
z
" style="fill:#ffffff;opacity:0.8;stroke:#cccccc;stroke-linejoin:miter;"/>
    </g>
    <g id="line2d_29">
     <path d="M -1 481.386437 
L 8.740438 481.386437 
" style="fill:none;stroke:#1f77b4;stroke-linecap:square;"/>
    </g>
    <g id="line2d_30"/>
    <g id="text_28">
     <!-- Professional(Love) -->
     <defs>
      <path d="M 31 75.875 
Q 24.46875 64.65625 21.28125 53.65625 
Q 18.109375 42.671875 18.109375 31.390625 
Q 18.109375 20.125 21.3125 9.0625 
Q 24.515625 -2 31 -13.1875 
L 23.1875 -13.1875 
Q 15.875 -1.703125 12.234375 9.375 
Q 8.59375 20.453125 8.59375 31.390625 
Q 8.59375 42.28125 12.203125 53.3125 
Q 15.828125 64.359375 23.1875 75.875 
z
" id="DejaVuSans-28"/>
      <path d="M 8.015625 75.875 
L 15.828125 75.875 
Q 23.140625 64.359375 26.78125 53.3125 
Q 30.421875 42.28125 30.421875 31.390625 
Q 30.421875 20.453125 26.78125 9.375 
Q 23.140625 -1.703125 15.828125 -13.1875 
L 8.015625 -13.1875 
Q 14.5 -2 17.703125 9.0625 
Q 20.90625 20.125 20.90625 31.390625 
Q 20.90625 42.671875 17.703125 53.65625 
Q 14.5 64.65625 8.015625 75.875 
z
" id="DejaVuSans-29"/>
     </defs>
     <g transform="translate(16.740438 484.886437)scale(0.1 -0.1)">
      <use xlink:href="#DejaVuSans-50"/>
      <use x="60.287109" xlink:href="#DejaVuSans-72"/>
      <use x="101.369141" xlink:href="#DejaVuSans-6f"/>
      <use x="162.550781" xlink:href="#DejaVuSans-66"/>
      <use x="197.755859" xlink:href="#DejaVuSans-65"/>
      <use x="259.279297" xlink:href="#DejaVuSans-73"/>
      <use x="311.378906" xlink:href="#DejaVuSans-73"/>
      <use x="363.478516" xlink:href="#DejaVuSans-69"/>
      <use x="391.261719" xlink:href="#DejaVuSans-6f"/>
      <use x="452.443359" xlink:href="#DejaVuSans-6e"/>
      <use x="515.822266" xlink:href="#DejaVuSans-61"/>
      <use x="577.101562" xlink:href="#DejaVuSans-6c"/>
      <use x="604.884766" xlink:href="#DejaVuSans-28"/>
      <use x="643.898438" xlink:href="#DejaVuSans-4c"/>
      <use x="699.595703" xlink:href="#DejaVuSans-6f"/>
      <use x="760.777344" xlink:href="#DejaVuSans-76"/>
      <use x="819.957031" xlink:href="#DejaVuSans-65"/>
      <use x="881.480469" xlink:href="#DejaVuSans-29"/>
     </g>
    </g>
    <g id="line2d_31">
     <path d="M -1 496.064563 
L 8.740438 496.064563 
" style="fill:none;stroke:#ff7f0e;stroke-linecap:square;"/>
    </g>
    <g id="line2d_32"/>
    <g id="text_29">
     <!-- Students(Love) -->
     <defs>
      <path d="M 45.40625 46.390625 
L 45.40625 75.984375 
L 54.390625 75.984375 
L 54.390625 0 
L 45.40625 0 
L 45.40625 8.203125 
Q 42.578125 3.328125 38.25 0.953125 
Q 33.9375 -1.421875 27.875 -1.421875 
Q 17.96875 -1.421875 11.734375 6.484375 
Q 5.515625 14.40625 5.515625 27.296875 
Q 5.515625 40.1875 11.734375 48.09375 
Q 17.96875 56 27.875 56 
Q 33.9375 56 38.25 53.625 
Q 42.578125 51.265625 45.40625 46.390625 
z
M 14.796875 27.296875 
Q 14.796875 17.390625 18.875 11.75 
Q 22.953125 6.109375 30.078125 6.109375 
Q 37.203125 6.109375 41.296875 11.75 
Q 45.40625 17.390625 45.40625 27.296875 
Q 45.40625 37.203125 41.296875 42.84375 
Q 37.203125 48.484375 30.078125 48.484375 
Q 22.953125 48.484375 18.875 42.84375 
Q 14.796875 37.203125 14.796875 27.296875 
z
" id="DejaVuSans-64"/>
     </defs>
     <g transform="translate(16.740438 499.564563)scale(0.1 -0.1)">
      <use xlink:href="#DejaVuSans-53"/>
      <use x="63.476562" xlink:href="#DejaVuSans-74"/>
      <use x="102.685547" xlink:href="#DejaVuSans-75"/>
      <use x="166.064453" xlink:href="#DejaVuSans-64"/>
      <use x="229.541016" xlink:href="#DejaVuSans-65"/>
      <use x="291.064453" xlink:href="#DejaVuSans-6e"/>
      <use x="354.443359" xlink:href="#DejaVuSans-74"/>
      <use x="393.652344" xlink:href="#DejaVuSans-73"/>
      <use x="445.751953" xlink:href="#DejaVuSans-28"/>
      <use x="484.765625" xlink:href="#DejaVuSans-4c"/>
      <use x="540.462891" xlink:href="#DejaVuSans-6f"/>
      <use x="601.644531" xlink:href="#DejaVuSans-76"/>
      <use x="660.824219" xlink:href="#DejaVuSans-65"/>
      <use x="722.347656" xlink:href="#DejaVuSans-29"/>
     </g>
    </g>
   </g>
  </g>
 </g>
 <defs>
  <clipPath id="pb98ba3255d">
   <path d="M 516.96 290.88 
C 516.96 261.758744 511.223747 232.920655 500.079525 206.016122 
C 488.935303 179.111589 472.599838 154.663838 452.008 134.072 
C 431.416162 113.480162 406.968411 97.144697 380.063878 86.000475 
C 353.159345 74.856253 324.321256 69.12 295.2 69.12 
C 266.078744 69.12 237.240655 74.856253 210.336122 86.000475 
C 183.431589 97.144697 158.983838 113.480162 138.392 134.072 
C 117.800162 154.663838 101.464697 179.111589 90.320475 206.016122 
C 79.176253 232.920655 73.44 261.758744 73.44 290.88 
C 73.44 320.001256 79.176253 348.839345 90.320475 375.743878 
C 101.464697 402.648411 117.800162 427.096162 138.392 447.688 
C 158.983838 468.279838 183.431589 484.615303 210.336122 495.759525 
C 237.240655 506.903747 266.078744 512.64 295.2 512.64 
C 324.321256 512.64 353.159345 506.903747 380.063878 495.759525 
C 406.968411 484.615303 431.416162 468.279838 452.008 447.688 
C 472.599838 427.096162 488.935303 402.648411 500.079525 375.743878 
C 511.223747 348.839345 516.96 320.001256 516.96 290.88 
M 295.2 290.88 
C 295.2 290.88 295.2 290.88 295.2 290.88 
C 295.2 290.88 295.2 290.88 295.2 290.88 
C 295.2 290.88 295.2 290.88 295.2 290.88 
C 295.2 290.88 295.2 290.88 295.2 290.88 
C 295.2 290.88 295.2 290.88 295.2 290.88 
C 295.2 290.88 295.2 290.88 295.2 290.88 
C 295.2 290.88 295.2 290.88 295.2 290.88 
C 295.2 290.88 295.2 290.88 295.2 290.88 
C 295.2 290.88 295.2 290.88 295.2 290.88 
C 295.2 290.88 295.2 290.88 295.2 290.88 
C 295.2 290.88 295.2 290.88 295.2 290.88 
C 295.2 290.88 295.2 290.88 295.2 290.88 
C 295.2 290.88 295.2 290.88 295.2 290.88 
C 295.2 290.88 295.2 290.88 295.2 290.88 
C 295.2 290.88 295.2 290.88 295.2 290.88 
C 295.2 290.88 295.2 290.88 295.2 290.88 
M 516.96 290.88 
z
"/>
  </clipPath>
 </defs>
</svg>
